<?xml version="1.0" encoding="UTF-8"?>
<svg id="Layer_1" xmlns="http://www.w3.org/2000/svg" version="1.1" xmlns:xlink="http://www.w3.org/1999/xlink" viewBox="0 0 120 120">
  <!-- Generator: Adobe Illustrator 29.3.1, SVG Export Plug-In . SVG Version: 2.1.0 Build 151)  -->
  <defs>
    <style>
      .st0 {
        fill: #fff;
      }

      .st1, .st2 {
        fill: none;
      }

      .st2 {
        stroke: #fec75a;
      }

      .st3 {
        fill: #df5426;
      }

      .st4 {
        fill: #004852;
      }

      .st5 {
        clip-path: url(#clippath);
      }
    </style>
    <clipPath id="clippath">
      <rect class="st1" x="9.5" y="20.56" width="87.43" height="78.75"/>
    </clipPath>
  </defs>
  <g class="st5">
    <path class="st4" d="M28.92,74.84c1.17,0,1.8.16,2.12.24.95.24,1.4.56,1.62.73.67.49.92,1,1.04,1.26.37.76.37,1.45.37,1.79v5.06c0,.58-.2.81-.3.93-.3.35-.59.51-.73.59-.69.43-1.37.58-1.7.65-1.01.22-1.86.22-2.29.22-2.31,0-3.22-.59-3.68-.89-1.37-.89-1.37-2.1-1.37-2.7,0-1.55.61-2.08.92-2.35.92-.81,2.19-.94,2.82-1.01l2.98-.31v-.25c0-.72-.39-.94-.58-1.05-.58-.34-1.31-.34-1.68-.34-.85,0-1.4.13-1.67.2-.82.2-1.25.38-1.47.47-.27-.18-.4-.43-.46-.55-.19-.37-.19-.65-.19-.8,0-.99.69-1.27,1.03-1.41.65-.25,1.23-.33,1.51-.37.86-.12,1.42-.12,1.69-.12ZM29.05,83.78c.49,0,.81-.07.97-.1.48-.1.65-.21.73-.26v-2.06l-1.84.16c-.72.07-1.01.24-1.15.32-.44.26-.44.6-.44.77,0,.54.27.75.4.85.4.31,1.02.31,1.32.31Z"/>
    <path class="st4" d="M43.53,79.07c0-.78-.31-1.04-.47-1.17-.47-.38-.99-.38-1.26-.38-.54,0-.84.09-.99.13-.45.13-.7.27-.83.34v7.93c-.22.07-.49.1-.63.12-.4.06-.73.06-.9.06-1.01,0-1.31-.22-1.46-.32-.45-.32-.45-.95-.45-1.27v-6.93c0-.58.16-.82.25-.94.25-.36.55-.57.69-.67.72-.52,1.47-.72,1.85-.83,1.13-.31,2.04-.31,2.5-.31,2.44,0,3.33.72,3.78,1.08,1.33,1.08,1.33,2.41,1.33,3.07v6.95c-.25.07-.52.1-.65.12-.4.06-.73.06-.9.06-1.01,0-1.3-.22-1.45-.32-.44-.32-.44-.95-.44-1.27v-5.45Z"/>
    <path class="st4" d="M54.58,82.95c.54,0,.8-.09.93-.13.39-.13.6-.28.71-.36v-4.59c-.27-.11-.49-.19-.59-.22-.32-.11-.65-.11-.82-.11-1.08,0-1.52.44-1.74.66-.66.66-.66,1.6-.66,2.07,0,.76.11,1.11.17,1.28.17.52.36.72.46.83.29.31.55.4.68.45.39.13.71.13.86.13ZM56.26,85.08c-.45.2-.82.28-1.01.32-.56.12-1.04.12-1.28.12-1.01,0-1.61-.19-1.92-.28-.91-.28-1.36-.7-1.58-.91-.67-.63-.94-1.3-1.08-1.64-.4-1.01-.4-1.98-.4-2.47,0-1.32.27-1.99.4-2.33.4-1.01.9-1.46,1.15-1.69.75-.68,1.45-.92,1.79-1.03,1.04-.35,1.89-.35,2.32-.35,1.26,0,1.95.22,2.3.32,1.04.32,1.43.58,1.62.71.43.29.59.54.67.66.25.37.25.74.25.93v8.45c0,1.17-.28,1.73-.43,2.02-.43.85-.93,1.22-1.18,1.4-.75.55-1.42.73-1.76.82-1.01.27-1.79.27-2.17.27-1.21,0-1.8-.13-2.1-.2-.89-.2-1.23-.41-1.4-.52-.76-.54-.76-1.14-.76-1.43,0-.47.13-.73.2-.86.2-.39.37-.51.45-.57.63.36,1.17.53,1.45.62.82.26,1.43.26,1.74.26,1.26,0,1.74-.29,1.98-.44.73-.44.73-1.11.73-1.45v-.74Z"/>
    <path class="st4" d="M66.39,74.84c1.17,0,1.8.16,2.12.24.95.24,1.4.56,1.62.73.67.49.92,1,1.04,1.26.37.76.37,1.45.37,1.79v5.06c0,.58-.2.81-.3.93-.3.35-.59.51-.73.59-.69.43-1.37.58-1.7.65-1.01.22-1.86.22-2.29.22-2.31,0-3.22-.59-3.68-.89-1.37-.89-1.37-2.1-1.37-2.7,0-1.55.61-2.08.92-2.35.92-.81,2.19-.94,2.82-1.01l2.98-.31v-.25c0-.72-.39-.94-.58-1.05-.58-.34-1.31-.34-1.68-.34-.85,0-1.4.13-1.67.2-.82.2-1.25.38-1.47.47-.27-.18-.4-.43-.46-.55-.19-.37-.19-.65-.19-.8,0-.99.69-1.27,1.03-1.41.65-.25,1.23-.33,1.51-.37.86-.12,1.42-.12,1.69-.12ZM66.53,83.78c.49,0,.81-.07.97-.1.48-.1.65-.21.73-.26v-2.06l-1.84.16c-.72.07-1.01.24-1.15.32-.44.26-.44.6-.44.77,0,.54.27.75.4.85.4.31,1.02.31,1.32.31Z"/>
    <path class="st4" d="M79.08,77.37c-.96,0-1.39.4-1.6.59-.64.59-.71,1.34-.75,1.71l4.28-.69c-.04-.58-.36-.93-.52-1.1-.47-.52-1.1-.52-1.41-.52ZM76.95,81.99c.31.94.84,1.2,1.1,1.33.78.39,1.47.39,1.82.39.94,0,1.49-.17,1.77-.26.83-.26,1.17-.47,1.34-.57.34.22.49.46.56.58.22.36.22.64.22.78,0,.52-.21.77-.31.9-.31.38-.68.55-.86.64-.55.26-1.05.34-1.3.38-.75.12-1.35.12-1.65.12-1.32,0-2.07-.25-2.44-.37-1.12-.37-1.66-.86-1.93-1.1-.81-.73-1.11-1.46-1.27-1.83-.46-1.1-.46-2.08-.46-2.58,0-1.43.31-2.14.46-2.49.46-1.05.97-1.52,1.23-1.75.77-.69,1.44-.91,1.77-1.02,1-.32,1.7-.32,2.05-.32,1.14,0,1.78.23,2.1.35.95.35,1.41.77,1.64.97.68.63.94,1.21,1.06,1.5.38.87.38,1.56.38,1.9,0,.72-.25.96-.38,1.08-.38.36-.84.43-1.08.47l-5.83.87Z"/>
    <path class="st4" d="M90.55,74.84c1.17,0,1.8.16,2.12.24.95.24,1.4.56,1.62.73.67.49.92,1,1.04,1.26.37.76.37,1.45.37,1.79v5.06c0,.58-.2.81-.3.93-.3.35-.59.51-.73.59-.69.43-1.37.58-1.7.65-1.01.22-1.86.22-2.29.22-2.31,0-3.22-.59-3.68-.89-1.37-.89-1.37-2.1-1.37-2.7,0-1.55.61-2.08.92-2.35.92-.81,2.19-.94,2.82-1.01l2.98-.31v-.25c0-.72-.39-.94-.58-1.05-.58-.34-1.31-.34-1.68-.34-.85,0-1.4.13-1.67.2-.82.2-1.25.38-1.47.47-.27-.18-.4-.43-.46-.55-.19-.37-.19-.65-.19-.8,0-.99.69-1.27,1.03-1.41.65-.25,1.23-.33,1.51-.37.86-.12,1.42-.12,1.69-.12ZM90.69,83.78c.49,0,.81-.07.97-.1.48-.1.65-.21.73-.26v-2.06l-1.84.16c-.72.07-1.01.24-1.15.32-.44.26-.44.6-.44.77,0,.54.27.75.4.85.4.31,1.02.31,1.32.31Z"/>
    <path class="st4" d="M17.35,74.86h-1.99c-3.11,0-5.62,2.52-5.62,5.62v5.63h7.61c3.11,0,5.63-2.52,5.63-5.63s-2.52-5.62-5.63-5.62M17.07,82.81h-3.75v-2.32c0-1.28,1.04-2.32,2.32-2.32h1.43c1.28,0,2.32,1.04,2.32,2.32s-1.04,2.32-2.32,2.32"/>
    <path class="st4" d="M9.5,86.9v3.46c0,1.27,1.03,2.3,2.3,2.3s2.3-1.03,2.3-2.3h0c0-.83-.47-1.59-1.2-1.96l-3.22-1.61c-.08-.04-.17.02-.17.11"/>
    <path class="st4" d="M72.68,96.24c.34,0,.54-.04.64-.06.31-.06.49-.13.58-.17.28-.11.43-.22.51-.28.23-.17.34-.32.4-.4.17-.23.23-.43.26-.53.09-.3.09-.53.09-.65,0-.47-.14-.71-.2-.83-.2-.36-.43-.52-.55-.6-.34-.23-.64-.31-.79-.35-.44-.12-.76-.12-.92-.12-.45,0-.71.04-.84.06-.39.06-.61.13-.71.16-.33.11-.51.2-.6.24-.28.13-.43.23-.51.29v2.53c.32.17.53.26.64.31.33.13.56.19.67.22.35.09.57.12.68.13.33.05.54.05.65.05ZM69.31,98.46v-6.7h.72v.56c.42-.24.7-.33.84-.38.42-.13.66-.17.78-.19.36-.06.56-.07.66-.08.3-.02.44-.02.51-.02.6,0,.97.11,1.16.16.56.16.85.37,1,.47.44.32.61.63.69.79.26.47.26.9.26,1.12,0,.45-.08.7-.12.82-.12.37-.27.57-.35.66-.22.29-.42.44-.52.51-.3.22-.52.31-.64.36-.34.14-.59.19-.72.21-.38.07-.63.07-.76.07-.32,0-.54-.01-.65-.02-.34-.02-.57-.06-.68-.09-.35-.07-.59-.15-.7-.19-.36-.13-.61-.25-.73-.31v2.23h-.72Z"/>
    <path class="st4" d="M78.3,91.77h-.71v4.98h.71v-3.27c.14-.32.29-.47.36-.55.21-.23.4-.33.49-.38.28-.15.49-.2.59-.22.32-.07.54-.07.65-.07.32,0,.52.03.63.05.31.05.51.12.61.15v-.7c-.3-.08-.48-.11-.58-.12-.28-.04-.47-.04-.57-.04-.34,0-.54.04-.65.07-.31.07-.5.15-.59.19-.28.12-.43.24-.51.31-.22.18-.34.35-.4.43h-.04v-.84Z"/>
    <path class="st4" d="M82.22,90.94h.77v-.96h-.77v.96ZM82.25,96.75h.71v-4.99h-.71v4.99Z"/>
    <path class="st4" d="M85.56,92.56v-.79h-.71v4.98h.7v-3.39c.17-.23.35-.37.43-.43.26-.2.48-.3.59-.35.33-.15.59-.21.72-.24.39-.09.67-.09.81-.09.56,0,.83.07.97.1.41.1.59.24.68.31.27.2.36.42.4.52.13.32.13.61.13.76v2.83h.7v-3.01c0-.55-.13-.81-.19-.94-.19-.39-.42-.56-.54-.64-.35-.25-.68-.33-.84-.37-.48-.12-.89-.12-1.09-.12-.32,0-.55.03-.67.04-.35.04-.59.12-.71.15-.36.11-.59.22-.71.28-.35.17-.54.35-.63.43-.01,0-.02,0-.03,0h-.02Z"/>
    <path class="st4" d="M92.07,91.77h1.13v-1.43h.69v1.43h1.55v.56h-1.55v3.1c0,.27.04.37.06.42.06.16.14.22.17.24.11.09.21.1.26.11.14.02.26.02.32.02.2,0,.36-.05.44-.07.24-.07.4-.15.48-.19v.62c-.13.06-.23.1-.28.11-.15.05-.25.07-.31.08-.16.03-.26.04-.31.04-.15.01-.24.01-.28.01-.31,0-.47-.04-.55-.06-.24-.06-.35-.16-.4-.2-.16-.14-.21-.29-.24-.37-.08-.22-.08-.44-.08-.54v-3.33h-1.12v-.56Z"/>
    <path class="st3" d="M74.79,42.69c0,12.22-9.91,22.13-22.13,22.13s-22.13-9.91-22.13-22.13,9.91-22.13,22.13-22.13,22.13,9.91,22.13,22.13"/>
    <path class="st0" d="M55.35,30.1h-3.04c-4.75,0-8.6,3.85-8.6,8.6v8.6h11.64c4.75,0,8.6-3.85,8.6-8.6s-3.85-8.6-8.6-8.6M54.92,42.26h-5.73v-3.55c0-1.96,1.59-3.55,3.55-3.55h2.18c1.96,0,3.55,1.59,3.55,3.55s-1.59,3.55-3.55,3.55"/>
    <path class="st0" d="M43.69,48.73v5.34c0,1.96,1.59,3.54,3.54,3.54s3.54-1.59,3.54-3.54h0c0-1.28-.72-2.45-1.86-3.02l-4.96-2.48c-.12-.06-.26.03-.26.16"/>
  </g>
  <line class="st2" x1="109.84" y1="7.06" x2="109.84" y2="112.81"/>
</svg>