<?xml version="1.0" encoding="UTF-8"?>
<svg id="Layer_1" xmlns="http://www.w3.org/2000/svg" version="1.1" xmlns:xlink="http://www.w3.org/1999/xlink" viewBox="0 0 540 324">
  <!-- Generator: Adobe Illustrator 29.1.0, SVG Export Plug-In . SVG Version: 2.1.0 Build 142)  -->
  <defs>
    <style>
      .st0 {
        <!-- fill: #231f20; -->
        fill: black;
      }

      .st1 {
        fill: none;
      }

      .st2 {
        fill: none;
      }

      .st3 {
        clip-path: url(#clippath);
      }
    </style>
    <clipPath id="clippath">
      <rect class="st2" width="540" height="324"/>
    </clipPath>
  </defs>
  <g class="st3">
    <path class="st0" d="M200.89,131.89c0-.63.42-1.34,1.27-2.12.85-.78,1.98-1.57,3.41-2.36,1.43-.8,3.07-1.54,4.92-2.24,1.86-.69,3.8-1.25,5.84-1.65,2.82-.55,5.36-.63,7.63-.21,2.27.43,4.2,1.29,5.8,2.58,1.6,1.3,2.83,3.01,3.71,5.11.88,2.1,1.32,4.52,1.34,7.21.02,2.88-.36,5.44-1.13,7.67-.77,2.23-1.88,4.1-3.32,5.61-1.44,1.51-3.18,2.66-5.22,3.46-2.04.79-4.31,1.23-6.8,1.33-.63.03-1.29,0-1.96-.06-.67-.06-1.3-.15-1.9-.26-.59-.11-1.12-.21-1.58-.32-.46-.11-.8-.21-1.01-.3-.06.06-.11.15-.16.25-.05.1-.07.25-.07.43,0,.22.09.43.28.63.18.2.5.37.96.51.46.15,1.08.27,1.86.37s1.76.18,2.95.22c0,1.92.01,2.88.02,4.8-.46.43-1.01.8-1.65,1.13-.64.33-1.33.61-2.06.84-.73.23-1.49.4-2.29.52-.8.11-1.59.17-2.38.17-1.1,0-2.15-.11-3.17-.34-1.02-.22-1.92-.58-2.7-1.06-.78-.48-1.4-1.1-1.87-1.85-.47-.75-.7-1.65-.7-2.71,0-9.13,0-18.26,0-27.38M216.92,143.65c.06.04.15.05.27.05.12,0,.21,0,.24-.01.46-.05.78-.24.97-.57.19-.33.28-.86.28-1.57,0-.96,0-1.44,0-2.4,0-.74-.09-1.26-.25-1.58-.17-.32-.47-.45-.9-.39-.1.01-.21.04-.35.08-.13.04-.24.08-.31.13.02.17.03.34.03.53,0,.19,0,.39,0,.59,0,2.05.01,3.08.02,5.13"/>
    <path class="st0" d="M242.31,123.04c.74-.68,1.58-1.33,2.52-1.94.94-.61,1.93-1.15,2.97-1.63,1.04-.48,2.13-.88,3.25-1.21,1.12-.33,2.25-.57,3.38-.73,1.5-.2,2.98-.22,4.46-.07,1.47.16,2.82.53,4.03,1.13,1.22.6,2.26,1.43,3.13,2.52.87,1.08,1.47,2.43,1.79,4.03,2.29,11.63,4.55,23.26,6.79,34.89-.88,1.49-2.11,2.71-3.7,3.66s-3.6,1.42-6.04,1.43c-1.08,0-2.09-.12-3.03-.36-.94-.24-1.78-.6-2.5-1.07-.72-.47-1.32-1.06-1.8-1.76-.47-.71-.78-1.54-.92-2.5-.27-1.76-.4-2.63-.66-4.38.59-.04,1.19-.15,1.77-.32.58-.17,1.11-.38,1.58-.63.47-.24.85-.52,1.15-.82.3-.3.44-.6.44-.89,0-.39-.13-.7-.38-.93-.34.33-.75.63-1.21.9-.46.27-.94.5-1.45.68-.51.18-1.02.33-1.52.43-.51.1-.98.16-1.43.17-.83.03-1.56-.01-2.21-.12-.64-.11-1.21-.25-1.69-.42-.48-.17-.9-.36-1.24-.57-.35-.21-.64-.42-.87-.62-.08.12-.14.26-.2.41-.06.16-.08.33-.08.52,0,.35.15.67.45.95.3.28.7.53,1.2.74.5.21,1.07.37,1.72.5.64.12,1.32.2,2.03.23.13,1.67.26,3,.42,3.99.15.99.29,1.61.43,1.88-.17.41-.51.85-1.01,1.32-.51.47-1.14.91-1.89,1.32-.76.41-1.62.74-2.59,1-.97.26-2,.39-3.1.39-1.36,0-2.65-.18-3.87-.55-1.21-.36-2.27-.87-3.18-1.51-.91-.64-1.63-1.41-2.18-2.32-.54-.91-.82-1.92-.82-3.05,0-.25,0-.5.02-.76.02-.26.05-.53.11-.8,2.01-11.04,3.98-22.08,5.93-33.12M255.96,139.83c-.22-1.43-.4-2.56-.53-3.42-.13-.85-.26-1.5-.39-1.93-.13-.43-.26-.71-.41-.83-.14-.12-.32-.17-.53-.15-.13.01-.26.05-.37.11-.11.06-.22.11-.32.17.46,2.85.69,4.28,1.14,7.15.08.09.19.15.33.19.15.04.28.05.39.05.17-.01.34-.05.49-.12.15-.07.27-.13.34-.18-.06-.41-.09-.62-.15-1.04"/>
    <path class="st0" d="M295.91,116.86c.5-.6,1.06-1.14,1.69-1.6.62-.47,1.28-.86,1.98-1.19.69-.33,1.41-.58,2.14-.77.73-.19,1.45-.3,2.14-.33,1.08-.06,2.14.03,3.17.25s1.95.65,2.76,1.28c.8.62,1.45,1.48,1.93,2.57.48,1.09.73,2.47.73,4.13.03,12.5.07,24.99.1,37.49,0,1.19-.21,2.19-.64,3.01-.43.82-1.01,1.47-1.73,1.96-.72.49-1.54.84-2.48,1.05-.93.21-1.9.32-2.9.32-.62,0-1.24-.05-1.86-.14-.62-.09-1.22-.23-1.77-.41-.56-.18-1.08-.39-1.56-.62-.48-.23-.9-.49-1.24-.78-.83-1.43-1.58-2.8-2.25-4.12-.67-1.32-1.29-2.58-1.85-3.79-.56-1.21-1.09-2.36-1.57-3.45-.49-1.09-.95-2.12-1.4-3.09-.33.06-.55.2-.66.42-.11.22-.17.49-.17.8,0,.39.08.77.24,1.14.16.37.36.82.61,1.36,1.46,3.1,2.19,4.66,3.64,7.79,0,.83,0,1.24,0,2.06-.29.26-.65.56-1.09.9-.44.34-.98.66-1.62.96-.64.3-1.39.55-2.23.76-.84.21-1.81.31-2.91.31-1.25,0-2.4-.16-3.46-.49-1.06-.33-1.98-.82-2.75-1.46-.77-.64-1.37-1.44-1.8-2.4-.43-.96-.65-2.07-.65-3.33-.07-12.65-.14-25.31-.22-37.96,0-.63.21-1.25.63-1.86.42-.61,1-1.14,1.73-1.61.73-.47,1.59-.87,2.57-1.2.98-.33,2.03-.53,3.15-.63,1.27-.1,2.45,0,3.53.34,1.08.33,2.03.79,2.47,1.33.45.56.9,1.52,1.4,2.49.51.96,1.04,2.03,1.61,3.21.57,1.18,1.15,2.43,1.77,3.76.61,1.33,1.24,2.71,1.88,4.11.19,0,.38-.1.56-.28.18-.18.27-.46.27-.85,0-.29-.08-.63-.24-1.03-.16-.4-.32-.79-.5-1.17-1.26-2.85-1.89-4.27-3.15-7.09,0-.86,0-1.28,0-2.14"/>
    <path class="st0" d="M338.88,146.79c-.62,0-1.19-.17-1.72-.5-.53-.33-1-.83-1.4-1.5-.4-.66-.72-1.5-.95-2.5-.23-1-.35-2.15-.35-3.46,0-1.01.07-1.94.2-2.78.13-.84.3-1.59.49-2.24.19-.65.4-1.21.64-1.66.23-.45.43-.81.61-1.08,6.86,0,10.3.02,17.16.13.6,1.2,1.02,2.52,1.26,3.94.25,1.42.37,2.82.37,4.2,0,1.59-.15,3.04-.43,4.35-.28,1.31-.62,2.37-1,3.19-.47,0-.71,0-1.18-.01,0,4.78-.01,7.17-.02,11.95-.75.9-1.61,1.76-2.57,2.58-.96.82-2.05,1.55-3.28,2.17-1.22.62-2.59,1.12-4.11,1.5-1.52.37-3.2.56-5.05.56s-3.54-.23-5.25-.68c-1.71-.45-3.33-1.15-4.85-2.09-1.52-.94-2.91-2.14-4.19-3.58-1.27-1.44-2.37-3.16-3.3-5.14-.93-1.98-1.65-4.25-2.16-6.8-.52-2.55-.78-5.41-.79-8.59-.01-4.45.48-8.35,1.46-11.73.99-3.37,2.37-6.21,4.15-8.5,1.78-2.29,3.92-4.04,6.4-5.21,2.48-1.18,5.22-1.77,8.22-1.77,1.57,0,3.09.18,4.58.56,1.49.37,2.88.86,4.17,1.48,1.29.62,2.47,1.33,3.53,2.13,1.06.8,1.96,1.65,2.69,2.54,0,.88-.04,1.83-.12,2.86-.08,1.03-.18,2.06-.31,3.08-.13,1.02-.28,1.99-.47,2.9-.18.91-.38,1.67-.6,2.28-6.1-.09-9.15-.11-15.25-.09-.23.35-.5.81-.8,1.4-.3.59-.58,1.29-.84,2.1-.26.81-.48,1.75-.66,2.8-.18,1.05-.27,2.22-.27,3.5,0,1.62.15,3.03.45,4.21.3,1.18.69,2.17,1.19,2.95.49.78,1.06,1.37,1.7,1.75.64.39,1.31.58,2.01.58.35,0,.59-.09.72-.26.13-.17.2-.38.2-.62v-.92h-.32"/>
    <path class="st0" d="M364.11,116.94c.76-.63,1.61-1.19,2.55-1.69.95-.5,1.95-.9,3-1.22,1.05-.32,2.15-.54,3.28-.67,1.13-.13,2.27-.16,3.4-.09,1.51.09,3,.37,4.47.84,1.47.46,2.82,1.13,4.03,1.99,1.21.86,2.25,1.93,3.11,3.21.86,1.28,1.44,2.77,1.74,4.48,2.11,12.07,4.24,24.14,6.39,36.21-.89,1.48-2.14,2.7-3.74,3.66-1.6.96-3.62,1.45-6.06,1.44-1.08,0-2.09-.13-3.03-.39-.94-.26-1.77-.64-2.49-1.15-.72-.51-1.31-1.15-1.78-1.91-.47-.77-.77-1.67-.9-2.71-.25-1.9-.37-2.86-.61-4.76.6-.02,1.19-.11,1.78-.27.59-.16,1.12-.36,1.59-.6.47-.24.86-.51,1.16-.81.3-.3.45-.61.45-.92,0-.41-.12-.75-.37-1.02-.35.33-.75.62-1.22.89-.46.26-.95.48-1.46.65-.51.17-1.02.3-1.53.38-.51.08-.99.12-1.43.11-.83-.01-1.56-.09-2.21-.25-.64-.15-1.21-.34-1.69-.55-.48-.22-.89-.45-1.24-.71s-.63-.5-.86-.74c-.08.13-.15.28-.2.45-.06.17-.09.36-.09.57,0,.39.15.75.44,1.09.3.33.7.62,1.19.88.5.26,1.07.47,1.71.63.64.16,1.32.28,2.03.34.11,1.83.23,3.28.37,4.36.14,1.08.28,1.77.41,2.05-.17.44-.52.91-1.03,1.42-.51.51-1.15.98-1.91,1.42-.76.44-1.63.81-2.6,1.1s-2.01.43-3.1.43c-1.36,0-2.65-.21-3.86-.63-1.21-.42-2.27-1.01-3.17-1.77-.9-.76-1.62-1.67-2.16-2.74-.54-1.07-.8-2.27-.8-3.6,0-.29.01-.59.03-.89.02-.3.06-.62.12-.93,2.07-12.53,4.15-25.06,6.26-37.59M377.63,137.69c-.21-1.57-.37-2.82-.49-3.76-.12-.94-.24-1.66-.37-2.14-.12-.49-.26-.8-.4-.95-.14-.15-.32-.23-.53-.24-.13,0-.26.02-.38.06-.12.05-.22.1-.32.14.43,3.18.64,4.76,1.07,7.93.08.11.19.19.33.24.14.06.27.09.39.09.17,0,.34-.02.49-.08.15-.06.27-.11.35-.16-.06-.45-.08-.68-.14-1.14"/>
    <path class="st0" d="M429.79,119.53c.25.53.47,1.1.68,1.72.21.62.38,1.26.51,1.92.13.65.23,1.31.3,1.95.07.65.11,1.25.1,1.8-.02,2.38-.41,4.11-1.18,5.19-.77,1.08-1.83,1.56-3.18,1.43-4.64-.45-6.96-.67-11.61-1.06-.71-.06-1.07.26-1.07.97,0,.05,0,.15,0,.29,0,.15.02.24.06.3,5.51.44,8.27.68,13.77,1.19.17.37.33.8.48,1.29.15.49.28,1,.38,1.54.1.53.19,1.08.25,1.63.06.55.09,1.07.09,1.56,0,1.4-.13,2.64-.37,3.73-.24,1.09-.55,1.99-.94,2.69-2.5-.14-3.75-.21-6.25-.34-1.63-.08-2.98-.1-4.05-.04-1.07.06-1.91.16-2.52.3-.62.14-1.05.31-1.3.51-.25.2-.38.4-.38.62,0,.19.02.38.07.55.05.17.16.32.33.45.48-.18.97-.32,1.47-.45.5-.12,1.06-.21,1.67-.27.62-.06,1.3-.09,2.06-.11.76-.01,1.64,0,2.64.05,3.24.15,4.86.23,8.09.4.21.38.42.81.63,1.27.21.46.39.99.55,1.59.16.6.29,1.28.39,2.05.1.77.15,1.65.14,2.64,0,.62-.05,1.29-.13,1.99-.08.7-.2,1.4-.36,2.09-.16.69-.36,1.35-.62,1.97-.25.62-.55,1.17-.9,1.63-7.2-.02-14.39-.04-21.59-.07-1.13,0-2.19-.18-3.17-.55-.98-.36-1.83-.93-2.56-1.69-.73-.77-1.3-1.73-1.71-2.9-.42-1.17-.62-2.57-.61-4.2.07-11.93.14-23.85.21-35.78,0-1.21,1.08-1.98,3.22-2.32,2.14-.33,5.4-.26,9.79.27,6.66.79,9.98,1.23,16.62,2.2"/>
    <path class="st0" d="M442.05,124.45c.75-.44,1.59-.81,2.53-1.11.94-.3,1.93-.51,2.97-.64,1.04-.12,2.12-.17,3.24-.12,1.12.04,2.24.17,3.37.38,1.49.28,2.96.71,4.42,1.29,1.46.57,2.79,1.29,3.98,2.13,1.2.85,2.22,1.83,3.08,2.94.85,1.11,1.43,2.35,1.74,3.72,2.11,9.46,4.28,18.9,6.51,28.32-.88,1.11-2.12,2.03-3.72,2.76-1.6.73-3.61,1.11-6.05,1.1-1.08,0-2.09-.11-3.03-.31-.94-.21-1.77-.52-2.49-.93-.72-.41-1.31-.93-1.78-1.56-.47-.62-.77-1.36-.9-2.21-.25-1.55-.37-2.32-.62-3.88.6,0,1.18-.05,1.77-.16.58-.11,1.11-.25,1.58-.43.47-.18.86-.38,1.15-.61.3-.23.45-.47.45-.72,0-.33-.12-.61-.37-.83-.35.25-.75.47-1.21.66-.46.19-.95.35-1.45.47-.51.12-1.02.21-1.53.26-.51.05-.98.06-1.42.04-.83-.04-1.56-.13-2.2-.28-.64-.15-1.2-.32-1.68-.51-.48-.2-.89-.4-1.23-.63-.34-.22-.63-.44-.86-.65-.08.11-.14.23-.2.36-.06.14-.09.3-.09.47,0,.33.14.63.44.92.3.28.69.54,1.19.77.5.23,1.07.42,1.71.57.64.15,1.32.27,2.03.34.11,1.5.23,2.68.37,3.57.14.89.28,1.44.41,1.68-.17.36-.52.74-1.03,1.15-.51.41-1.15.79-1.91,1.15-.76.36-1.63.66-2.6.89-.97.24-2,.35-3.1.35-1.36,0-2.65-.18-3.86-.54-1.21-.36-2.26-.87-3.16-1.52-.9-.65-1.61-1.44-2.15-2.37-.53-.93-.79-1.97-.79-3.11,0-.25.01-.51.03-.77.02-.26.06-.53.12-.8,2.07-10.55,4.17-21.09,6.32-31.63M455.45,142.96c-.21-1.29-.37-2.32-.49-3.09-.12-.78-.24-1.37-.37-1.77-.12-.41-.26-.68-.4-.81-.14-.13-.32-.22-.53-.24-.13-.02-.26-.01-.37.02-.11.03-.22.06-.32.09.42,2.64.64,3.95,1.06,6.57.08.09.19.17.33.22.14.06.27.09.39.1.17.02.33,0,.49-.03.15-.04.27-.07.35-.11-.06-.37-.08-.56-.14-.93"/>
    <path class="st0" d="M203.6,178.15c0-.99.66-1.95,1.99-2.89,1.33-.94,3.11-1.79,5.35-2.55,2.24-.76,4.81-1.37,7.72-1.83,2.91-.46,5.96-.69,9.15-.69,4.42,0,8.4.57,11.93,1.72,3.54,1.15,6.54,2.77,9.02,4.86,2.48,2.09,4.39,4.61,5.73,7.57,1.34,2.95,2.01,6.22,2.01,9.8,0,3.82-.61,7.18-1.84,10.07-1.22,2.89-2.96,5.31-5.21,7.25-2.25,1.94-4.97,3.4-8.15,4.36-3.18.97-6.71,1.46-10.59,1.46-.99,0-2-.07-3.04-.2-1.04-.14-2.03-.3-2.96-.49-.92-.19-1.75-.39-2.46-.58-.72-.19-1.24-.36-1.57-.51-.09.09-.17.21-.25.36-.07.15-.11.36-.11.63,0,.33.14.64.43.94.28.3.78.57,1.5.81.71.24,1.68.45,2.89.65,1.21.19,2.74.35,4.59.47v6.85c-.72.6-1.57,1.13-2.57,1.59-1,.46-2.07.86-3.2,1.19-1.13.33-2.32.58-3.56.74-1.24.16-2.47.25-3.69.25-1.7,0-3.34-.17-4.92-.51-1.58-.34-2.98-.89-4.19-1.63-1.21-.75-2.18-1.71-2.91-2.89-.73-1.18-1.1-2.59-1.1-4.23v-42.53ZM228.62,199.11c.09.06.23.1.43.11.19.02.32.02.38.02.71,0,1.22-.22,1.52-.67.3-.45.45-1.18.45-2.19v-3.4c0-1.04-.13-1.81-.38-2.28-.25-.48-.72-.72-1.41-.72-.15,0-.33.01-.54.04-.21.03-.37.07-.49.13.03.24.04.49.04.76v8.19Z"/>
    <path class="st0" d="M318.85,215.45c-.51,4.57-1.95,8.13-4.32,10.68-2.37,2.55-5.72,3.83-10.05,3.83-1.4,0-2.81-.16-4.23-.49-1.42-.33-2.79-.92-4.12-1.77-1.33-.85-2.57-2.01-3.74-3.49-1.16-1.48-2.16-3.36-3-5.66l-1.61-4.39c-1.16-.03-2.1-.1-2.82-.2-.72-.11-1.36-.2-1.93-.29-.09.09-.17.21-.25.36-.07.15-.11.36-.11.63,0,.36.24.67.72.92.48.25,1.45.43,2.91.51l2.55,6.45v3.81c-1.67,1.19-3.66,2.1-5.95,2.71-2.3.61-4.71.92-7.25.92-1.85,0-3.54-.19-5.08-.56-1.54-.37-2.87-.95-4.01-1.72-1.13-.78-2.01-1.74-2.64-2.89-.63-1.15-.94-2.51-.94-4.1v-42.53c0-.69.34-1.36,1.03-2.04.69-.67,1.63-1.31,2.82-1.9,1.19-.6,2.6-1.14,4.21-1.63,1.61-.49,3.34-.92,5.17-1.28,1.84-.36,3.74-.63,5.73-.83,1.98-.19,3.95-.29,5.89-.29,4.33,0,8.27.46,11.84,1.39,3.57.93,6.62,2.3,9.15,4.14s4.5,4.1,5.89,6.81,2.08,5.84,2.08,9.42c0,2.09-.32,4.01-.96,5.77-.64,1.76-1.5,3.33-2.57,4.7-1.07,1.37-2.34,2.54-3.78,3.51-1.45.97-2.98,1.71-4.59,2.22,0,.54.15.91.45,1.12.3.21.66.31,1.07.31s1.05-.15,1.88-.45c.83-.3,1.78-.83,2.82-1.61l7.74,7.92ZM288,197.32c.09.06.23.1.43.11.19.02.32.02.38.02.71,0,1.22-.22,1.52-.67.3-.45.45-1.18.45-2.19v-1.61c0-1.04-.13-1.81-.38-2.28-.25-.48-.72-.72-1.41-.72-.15,0-.33.01-.54.04-.21.03-.37.07-.49.13.03.24.04.49.04.76v6.4Z"/>
    <path class="st0" d="M346.01,228.65c-2.25.87-4.96,1.3-8.12,1.3-1.67,0-3.28-.18-4.84-.54-1.55-.36-2.92-.9-4.1-1.63-1.18-.73-2.12-1.66-2.82-2.78-.7-1.12-1.05-2.44-1.05-3.96v-46.25c1.22-1.07,2.96-2.04,5.21-2.91,2.25-.87,4.96-1.3,8.13-1.3,1.67,0,3.28.18,4.83.54,1.55.36,2.92.9,4.1,1.63,1.18.73,2.12,1.66,2.82,2.78.7,1.12,1.05,2.44,1.05,3.96v46.24c-1.22,1.07-2.96,2.04-5.21,2.91"/>
    <path class="st0" d="M386.48,174.48c.78-.66,1.65-1.23,2.62-1.72.97-.49,1.99-.9,3.07-1.23,1.07-.33,2.18-.57,3.31-.74,1.13-.16,2.24-.25,3.31-.25,1.67,0,3.3.16,4.9.47,1.6.31,3.02.84,4.25,1.59,1.24.75,2.23,1.75,2.98,3,.74,1.25,1.12,2.82,1.12,4.7v42.39c0,1.34-.33,2.48-1.01,3.4-.67.92-1.57,1.66-2.69,2.22-1.12.55-2.4.95-3.85,1.19-1.45.24-2.95.36-4.5.36-.96,0-1.92-.05-2.89-.16-.97-.1-1.89-.26-2.75-.47-.87-.21-1.67-.45-2.42-.72-.75-.27-1.39-.57-1.92-.9-1.28-1.64-2.44-3.22-3.47-4.74-1.03-1.52-1.98-2.98-2.84-4.39-.87-1.4-1.67-2.74-2.42-4.01-.75-1.27-1.46-2.47-2.15-3.6-.51.06-.85.22-1.03.47-.18.25-.27.56-.27.92,0,.45.12.89.36,1.32.24.43.55.96.94,1.59l5.6,9.04v2.37c-.45.3-1.02.64-1.7,1.03-.69.39-1.53.76-2.53,1.1-1,.34-2.16.63-3.47.87-1.32.24-2.82.36-4.52.36-1.94,0-3.73-.19-5.37-.58-1.64-.39-3.06-.96-4.25-1.72-1.19-.76-2.12-1.71-2.78-2.84-.66-1.13-.99-2.45-.99-3.94v-44.86c0-.75.33-1.46.99-2.13.66-.67,1.55-1.25,2.69-1.72,1.13-.48,2.46-.86,3.98-1.14,1.52-.28,3.15-.43,4.88-.43,1.97,0,3.79.24,5.46.72,1.67.48,2.94,1.06,3.8,1.75.66.84,1.37,1.83,2.15,2.98.78,1.15,1.6,2.42,2.46,3.8.87,1.39,1.77,2.87,2.71,4.43.94,1.57,1.9,3.17,2.89,4.81.3,0,.59-.1.87-.29.28-.19.42-.51.42-.96,0-.33-.12-.72-.36-1.19-.24-.46-.49-.92-.76-1.37l-4.83-8.33v-2.46Z"/>
    <path class="st0" d="M458.17,225.74c-1.22,1.07-2.96,2.05-5.22,2.91-2.25.86-4.96,1.3-8.13,1.3-1.67,0-3.28-.18-4.84-.54s-2.92-.9-4.1-1.63c-1.18-.73-2.12-1.66-2.82-2.78-.7-1.12-1.05-2.44-1.05-3.96v-28.83h-10.43c-1.13-1.64-1.95-3.28-2.46-4.9-.51-1.63-.76-3.35-.76-5.17,0-1.37.12-2.62.36-3.74.24-1.12.55-2.12.94-3,.39-.88.83-1.66,1.32-2.33.49-.67.99-1.23,1.5-1.68h46.29c.83,1.28,1.54,2.88,2.13,4.79.58,1.91.87,3.84.87,5.78,0,1.82-.22,3.38-.65,4.68-.43,1.3-1.03,2.36-1.79,3.18-.76.82-1.66,1.43-2.71,1.81-1.05.39-2.19.58-3.45.58h-13.12c-.09.24-.13.46-.13.67,0,.27.06.49.18.65.12.16.36.31.74.43.37.12.89.2,1.57.25.67.04,1.56.07,2.66.07h3.09v31.47Z"/>
    <path class="st0" d="M215.93,250.6c-1.35,0-2.31-.46-2.88-1.39-.58-.92-.86-2.29-.86-4.09,0-1.25.02-2.36.06-3.3.04-.94.1-1.71.17-2.3.08-.59.16-.98.25-1.18.09-.17.2-.29.33-.37.13-.08.29-.12.49-.12.23,0,.43.09.58.26.16.18.23.47.23.88,0,1.15-.01,2.21-.04,3.17-.02.97-.04,1.95-.04,2.96,0,1.31.16,2.24.48,2.79.32.55.82.83,1.52.83.36,0,.71-.11,1.05-.33.34-.22.61-.58.83-1.08.22-.5.33-1.15.33-1.97,0-1.09,0-2.1,0-3.05,0-.94,0-1.99,0-3.13,0-.31.04-.56.13-.75.08-.19.2-.33.36-.42.16-.09.33-.14.52-.14.22,0,.41.04.56.14.15.09.28.23.36.42.08.19.13.44.13.75,0,.76,0,1.48,0,2.14,0,.67-.01,1.33-.02,1.98,0,.65-.01,1.34-.01,2.05,0,.82.11,1.47.33,1.97.22.5.5.86.85,1.08s.69.33,1.04.33c.7,0,1.21-.28,1.52-.83.32-.55.48-1.48.48-2.79,0-1.01,0-2-.03-2.96-.02-.96-.03-2.02-.03-3.17,0-.41.07-.71.22-.88.15-.17.35-.26.59-.26.19,0,.35.04.49.11.13.07.23.19.31.36.1.18.19.57.26,1.17.07.6.13,1.38.16,2.32.04.95.06,2.05.06,3.3,0,1.8-.28,3.16-.85,4.09-.56.93-1.52,1.39-2.88,1.39-.71,0-1.33-.16-1.86-.49-.53-.33-.94-.77-1.24-1.31-.08-.15-.15-.27-.21-.35-.06-.08-.14-.12-.23-.12s-.16.04-.22.12c-.06.08-.13.19-.2.35-.3.54-.71.98-1.22,1.31-.52.33-1.13.49-1.82.49"/>
    <path class="st0" d="M231.8,250.53c-.25,0-.44-.1-.59-.29s-.25-.49-.3-.87c-.07-.61-.11-1.35-.13-2.21-.02-.87-.03-1.87-.03-3.01s0-2.06.03-2.91c.02-.85.06-1.6.13-2.23.05-.36.16-.64.31-.83.15-.19.36-.29.62-.29s.46.09.61.27c.15.18.23.44.24.78.02.31.04.67.06,1.08.01.41.02.8.02,1.18v.92c0,.22.04.38.11.48.07.1.24.15.51.17.25.01.51.02.78.02h1.66c.25,0,.48,0,.67-.02.34-.01.55-.07.65-.17.1-.1.15-.26.15-.48v-1.01c0-.39,0-.78.02-1.17.01-.39.03-.72.06-1.01.03-.34.11-.6.25-.78.14-.18.34-.27.58-.27.26,0,.47.1.64.29s.27.47.31.83c.07.64.1,1.38.12,2.23.01.85.02,1.82.02,2.91s0,2.14-.02,3.01c-.01.87-.05,1.61-.12,2.21-.04.39-.14.68-.3.87-.16.19-.37.29-.61.29-.26,0-.46-.1-.61-.3-.15-.2-.24-.5-.26-.88-.03-.34-.04-.74-.05-1.21,0-.47-.01-.97-.02-1.49,0-.52,0-1,0-1.44,0-.25-.05-.41-.15-.49s-.31-.13-.65-.15c-.23-.01-.47-.02-.7-.02h-1.64c-.28,0-.53,0-.77.02-.27.01-.44.07-.51.15-.07.09-.11.25-.11.49,0,.43,0,.9,0,1.42,0,.52-.02,1.01-.03,1.49-.01.48-.03.89-.04,1.22-.01.39-.1.68-.25.88-.16.2-.37.3-.64.3"/>
    <path class="st0" d="M243.7,250.58c-.22,0-.39-.05-.52-.14-.13-.09-.22-.21-.28-.37-.06-.15-.09-.34-.09-.56,0-.35.05-.83.16-1.44.1-.61.25-1.32.45-2.14.19-.82.43-1.7.7-2.66.32-1.13.61-2.05.87-2.76s.51-1.27.76-1.67c.25-.4.5-.68.76-.83.26-.16.54-.23.85-.23.35,0,.66.09.92.26.27.17.52.46.76.87.24.41.48.96.72,1.67.24.71.51,1.6.81,2.67.28.97.53,1.87.73,2.69.2.82.36,1.54.47,2.14.11.61.16,1.08.16,1.42,0,.21-.03.4-.09.56s-.15.29-.28.38c-.13.08-.3.13-.52.13-.19,0-.36-.05-.49-.15s-.25-.24-.33-.44c-.09-.19-.15-.42-.2-.68-.12-.66-.21-1.18-.29-1.57-.08-.39-.14-.69-.2-.89-.06-.21-.12-.37-.18-.49-.05-.1-.12-.18-.21-.23-.09-.05-.26-.08-.52-.1-.26-.01-.67-.02-1.22-.02s-.93,0-1.18.02c-.26.01-.44.05-.53.1-.1.05-.17.12-.22.21-.08.16-.15.34-.2.54-.06.21-.12.49-.18.86-.07.37-.17.9-.31,1.58-.05.26-.12.48-.2.67-.08.19-.19.33-.31.43s-.29.15-.5.15M247.41,244.45h.58c.18,0,.34,0,.49-.02.16-.01.26-.05.31-.11.05-.06.08-.15.08-.28,0-.23-.05-.53-.15-.88-.1-.35-.22-.75-.35-1.17-.19-.7-.35-1.21-.47-1.54-.12-.33-.22-.54-.3-.64s-.18-.15-.28-.15c-.08,0-.15.05-.23.15-.08.11-.17.32-.27.63-.1.32-.25.81-.45,1.49-.12.4-.23.79-.34,1.18-.11.39-.16.7-.16.93,0,.13.02.22.07.28.05.06.15.1.3.11.22.01.42.02.6.02h.58Z"/>
    <path class="st0" d="M257.74,250.53c-.23,0-.43-.04-.58-.14-.15-.09-.27-.25-.35-.47-.08-.23-.12-.52-.12-.88v-1.2c0-.5,0-1.06.01-1.67,0-.61.01-1.23.02-1.86,0-.63.01-1.22.02-1.79,0-.56,0-1.05,0-1.47v-.9c0-.21-.03-.35-.09-.43-.06-.08-.18-.12-.36-.12h-1.53c-.21,0-.4-.05-.58-.15-.18-.1-.27-.31-.27-.62,0-.19.04-.35.12-.49.08-.13.24-.23.5-.3.25-.07.63-.12,1.15-.15.51-.03,1.19-.05,2.03-.05s1.54.02,2.05.05c.51.03.89.08,1.15.15.25.07.42.17.5.3.08.13.13.29.13.49,0,.31-.09.52-.27.62-.18.1-.38.15-.6.15h-1.52c-.18,0-.3.04-.37.12-.07.08-.1.22-.1.43,0,.18,0,.48,0,.9,0,.42.01.91.01,1.47s0,1.16.02,1.79c.01.63.02,1.25.02,1.86s0,1.17.01,1.67c0,.51,0,.91,0,1.2,0,.36-.04.66-.12.88-.08.23-.19.38-.33.47-.14.09-.33.14-.56.14"/>
    <path class="st0" d="M265.16,243.17c-.23,0-.4-.06-.51-.19-.1-.13-.15-.28-.15-.45,0-.19.05-.38.16-.55.11-.18.22-.38.33-.6.11-.23.17-.5.17-.82,0-.17-.03-.33-.08-.49-.05-.16-.1-.32-.16-.51-.05-.18-.08-.39-.08-.64,0-.34.09-.61.27-.83.18-.22.46-.33.83-.33s.65.16.85.47c.21.31.31.77.31,1.38s-.1,1.2-.31,1.75-.46.98-.76,1.32c-.3.34-.6.5-.89.5"/>
    <path class="st0" d="M271.51,250.54c-.4,0-.69-.08-.87-.23-.18-.16-.27-.36-.27-.62,0-.17.04-.31.13-.43.08-.12.2-.21.33-.27.14-.06.28-.1.44-.12,1.14-.12,2.01-.36,2.6-.73.6-.37.89-.86.89-1.49,0-.34-.1-.63-.3-.89-.2-.26-.46-.5-.78-.72-.32-.22-.65-.44-1.01-.67-.36-.23-.69-.48-1.01-.77-.32-.28-.58-.62-.78-1.01-.2-.39-.3-.85-.3-1.38,0-.56.12-1.05.37-1.49.24-.43.58-.8,1.02-1.09.43-.29.92-.51,1.47-.65.54-.14,1.11-.21,1.69-.21.41,0,.71.07.89.19.18.13.27.34.27.62,0,.16-.03.29-.1.42s-.16.22-.28.29c-.12.07-.29.11-.49.13-1.04.05-1.78.23-2.22.54-.45.31-.67.67-.67,1.09,0,.34.1.64.3.9.2.26.46.51.79.73.32.22.66.45,1.01.68.35.23.69.49,1.01.78.32.29.59.62.79,1,.2.38.3.84.3,1.37,0,.67-.14,1.26-.44,1.77-.29.51-.68.92-1.17,1.25-.49.33-1.05.58-1.67.75s-1.26.25-1.92.25"/>
    <path class="st0" d="M288.87,250.53c-.35,0-.61-.14-.77-.43-.16-.29-.24-.64-.24-1.07v-2.41c0-.4-.04-.71-.13-.92-.08-.21-.21-.48-.38-.79-.57-1.04-1.05-1.91-1.43-2.61-.38-.7-.69-1.28-.91-1.74-.23-.45-.39-.82-.5-1.11-.1-.29-.15-.53-.15-.74,0-.15.03-.3.08-.44.05-.14.14-.25.25-.33.12-.08.28-.13.49-.13.26,0,.5.1.71.3.21.2.44.53.67.98.23.45.51,1.06.83,1.81.32.75.73,1.68,1.2,2.8.06.13.11.21.15.25.03.04.07.06.13.06.06,0,.11-.02.15-.06.03-.04.07-.12.13-.25.48-1.11.88-2.04,1.2-2.8.32-.75.61-1.35.84-1.81.24-.45.46-.78.67-.98.21-.2.44-.3.7-.3.22,0,.39.04.5.13.12.08.2.19.24.33.05.14.07.28.07.44,0,.21-.05.45-.15.74-.1.28-.26.65-.49,1.11-.23.45-.54,1.03-.92,1.73-.38.7-.86,1.57-1.43,2.62-.16.3-.27.56-.35.78-.08.22-.12.52-.12.91v2.43c0,.43-.08.78-.25,1.07-.17.28-.43.43-.8.43"/>
    <path class="st0" d="M301.8,250.6c-1.1,0-2.1-.26-3.01-.79-.91-.52-1.62-1.27-2.15-2.25-.53-.98-.8-2.14-.8-3.49s.27-2.49.8-3.42c.53-.93,1.25-1.64,2.15-2.14.9-.49,1.91-.74,3.02-.74s2.13.24,3.04.73c.91.49,1.64,1.19,2.18,2.13.54.93.82,2.07.82,3.42s-.27,2.51-.82,3.49c-.54.98-1.27,1.73-2.18,2.26-.91.53-1.93.8-3.04.8M301.78,248.78c.81,0,1.52-.19,2.13-.58.6-.39,1.07-.94,1.41-1.64.34-.7.51-1.53.51-2.47s-.18-1.75-.52-2.42c-.35-.67-.83-1.18-1.44-1.53-.61-.35-1.31-.52-2.1-.52s-1.44.18-2.04.52c-.6.35-1.06.86-1.39,1.53-.33.67-.49,1.47-.49,2.42s.16,1.77.49,2.47c.32.71.78,1.25,1.37,1.64.59.39,1.28.58,2.09.58"/>
    <path class="st0" d="M316.05,250.58c-1.11,0-2.02-.23-2.72-.68-.7-.45-1.21-1.09-1.53-1.92-.32-.83-.49-1.8-.49-2.91,0-1.03,0-2.01.02-2.91.01-.91.05-1.69.1-2.35.05-.66.14-1.13.27-1.4.09-.18.2-.32.32-.41.12-.09.29-.14.49-.14.3,0,.52.09.66.26.14.17.21.43.21.77,0,.46,0,.99-.02,1.57-.01.58-.02,1.26-.04,2.03-.01.77-.02,1.69-.02,2.75,0,1.17.24,2.04.72,2.63.48.59,1.15.88,2.02.88s1.54-.29,2.01-.88c.47-.59.71-1.47.71-2.63,0-1.06,0-1.98-.01-2.75,0-.77-.02-1.45-.03-2.03-.01-.58-.02-1.11-.02-1.57,0-.34.07-.59.21-.77.14-.18.36-.26.66-.26.18,0,.34.04.48.13.14.08.23.21.3.38.15.29.26.76.31,1.42.05.66.08,1.44.09,2.35,0,.91.01,1.88.01,2.93,0,1.11-.16,2.08-.49,2.91-.32.83-.83,1.47-1.52,1.92-.69.45-1.6.68-2.71.68"/>
    <path class="st0" d="M326.11,250.53c-.3,0-.54-.08-.74-.24-.19-.16-.31-.45-.35-.86-.08-.87-.13-1.77-.16-2.72-.02-.94-.04-1.79-.04-2.54s0-1.6.02-2.51c.01-.91.06-1.82.16-2.73.04-.29.14-.5.29-.66.15-.16.41-.27.77-.33.36-.07.85-.1,1.49-.1,1.09,0,1.95.13,2.6.4.65.27,1.11.65,1.4,1.15.28.5.43,1.1.43,1.8,0,.66-.16,1.23-.47,1.72-.31.49-.72.88-1.22,1.17-.05.04-.09.08-.13.13-.03.05-.05.11-.05.19,0,.06.01.13.04.19.03.06.06.13.1.19.14.23.35.55.61.95.27.4.55.83.85,1.28.3.45.56.88.8,1.29.23.41.39.75.47,1.02.09.38.04.68-.14.91-.18.23-.43.35-.74.35-.28,0-.53-.08-.73-.23-.2-.15-.38-.38-.53-.66-.62-1.07-1.1-1.94-1.44-2.59-.34-.65-.61-1.14-.82-1.47-.21-.36-.38-.59-.51-.67-.14-.08-.33-.13-.59-.13-.27,0-.44.05-.51.15-.07.11-.11.25-.11.43,0,.44,0,.85.02,1.21.01.37.03.78.05,1.22.02.45.03,1.01.03,1.68,0,.27-.07.51-.21.71-.14.2-.35.3-.62.3M327.58,243.28c.69,0,1.21-.1,1.58-.29.37-.19.62-.45.77-.76.14-.31.21-.64.21-.97,0-.69-.2-1.16-.59-1.42-.39-.26-1.04-.39-1.95-.39-.26,0-.45.03-.56.09-.12.06-.19.21-.23.45-.04.24-.06.64-.06,1.19,0,.66.02,1.14.05,1.44.03.3.11.48.22.55.12.07.3.11.56.11"/>
    <path class="st0" d="M342.32,250.53c-.21,0-.39-.07-.53-.22-.15-.15-.26-.38-.32-.69-.09-.52-.16-1.23-.2-2.15-.04-.91-.06-2.02-.06-3.33,0-1.21.02-2.27.05-3.16.03-.89.09-1.6.18-2.12.1-.41.29-.69.55-.85.26-.15.6-.22,1-.22.3,0,.56.05.8.15.23.1.46.31.68.62.22.32.46.81.72,1.49.26.67.56,1.59.89,2.74.36,1.15.65,2.09.85,2.81.21.72.37,1.27.5,1.66.12.39.22.65.29.8.07.14.15.21.22.21.07,0,.11-.03.14-.1.03-.07.04-.17.04-.31,0-.63,0-1.25-.01-1.85,0-.6-.02-1.24-.04-1.91-.02-.67-.03-1.42-.04-2.23,0-.81-.01-1.74-.01-2.78,0-.44.08-.75.24-.93.16-.18.37-.27.61-.27.16,0,.31.05.48.14.16.09.27.28.32.56.07.44.12,1.11.17,2,.04.89.07,2.08.07,3.57,0,1.28-.02,2.41-.05,3.39-.03.98-.11,1.68-.22,2.11-.1.35-.28.6-.54.75-.26.15-.58.22-.95.22-.25,0-.47-.05-.68-.14-.21-.09-.42-.27-.63-.55-.21-.28-.44-.7-.69-1.26-.25-.56-.53-1.32-.85-2.26-.32-.94-.68-2.13-1.08-3.55-.17-.58-.3-1.05-.41-1.41-.1-.36-.19-.63-.25-.82-.07-.19-.12-.33-.17-.4-.05-.07-.1-.11-.15-.11s-.1.03-.13.1c-.03.06-.05.19-.05.39,0,.75.01,1.6.03,2.54.02.94.04,1.93.05,2.95.01,1.02.02,2.04.02,3.05,0,.49-.07.85-.21,1.07-.14.22-.35.33-.62.33"/>
    <path class="st0" d="M357.2,250.56c-.69,0-1.23-.03-1.62-.08-.4-.05-.69-.13-.87-.24-.19-.11-.32-.23-.4-.36-.07-.14-.12-.48-.17-1.01-.05-.53-.08-1.21-.11-2.02-.02-.81-.04-1.73-.04-2.74,0-1.22,0-2.23.03-3.04.02-.81.05-1.43.1-1.87.05-.44.1-.72.17-.84.08-.16.2-.27.38-.35.18-.08.45-.13.82-.15.37-.03.87-.04,1.51-.04,1.05,0,1.86.03,2.43.09.57.06.96.16,1.18.3.22.14.33.34.33.58,0,.27-.07.48-.22.61-.15.14-.39.2-.71.2-.26,0-.6,0-1.01,0-.42,0-.84-.02-1.27-.03-.43-.01-.82-.02-1.16-.02-.23,0-.39.03-.48.09-.08.06-.13.23-.15.51-.01.36-.02.72-.03,1.08,0,.36-.01.7-.01,1.04,0,.28.05.46.15.52.1.06.24.09.44.09.43,0,.8,0,1.11-.01.31,0,.62-.01.92-.02.3,0,.65-.01,1.04-.01.47,0,.78.07.93.21.16.14.23.36.23.66s-.09.5-.27.65c-.18.15-.47.22-.85.22-.45,0-.98,0-1.59-.02-.61-.01-1.18-.02-1.71-.02-.23,0-.35.12-.35.35,0,.25,0,.55.01.91,0,.36.01.73.02,1.09,0,.36.01.67.02.92,0,.25.01.4.01.46.02.18.07.31.13.39.06.08.18.12.36.12h3.49c.22,0,.42.05.59.14.17.1.26.3.26.59,0,.18-.05.34-.15.48-.1.14-.28.25-.54.33-.27.08-.63.15-1.11.18-.47.04-1.09.06-1.84.06"/>
    <path class="st0" d="M364.63,250.58c-.16,0-.29-.04-.4-.13-.11-.08-.2-.19-.26-.32-.07-.13-.1-.27-.1-.41,0-.25.12-.6.35-1.07.23-.47.58-1.05,1.05-1.76.47-.71,1.04-1.54,1.73-2.51.05-.07.1-.13.14-.2.04-.07.06-.14.06-.21s-.02-.13-.05-.19c-.03-.07-.08-.14-.15-.21-.4-.52-.78-1.04-1.13-1.56-.35-.53-.66-1.01-.93-1.46-.27-.45-.49-.84-.64-1.18s-.23-.61-.23-.81c0-.21.05-.39.17-.53.11-.15.29-.22.53-.22.29,0,.52.1.72.31.14.14.32.37.54.68.22.31.45.67.7,1.07.24.4.49.8.73,1.19.24.39.45.74.63,1.04.12.18.2.3.24.36.05.06.09.09.15.09s.1-.03.14-.09c.04-.06.12-.18.23-.36.18-.3.39-.65.64-1.05.25-.4.5-.81.75-1.21.25-.41.48-.77.7-1.09.21-.32.39-.54.51-.67.09-.08.19-.14.3-.19.11-.05.23-.08.36-.08.24,0,.42.08.53.22.11.15.17.33.17.53,0,.19-.08.46-.23.81-.15.34-.37.74-.64,1.19-.27.45-.58.94-.93,1.46-.35.52-.72,1.04-1.13,1.55-.05.08-.09.15-.13.2-.03.06-.05.12-.05.18s.02.14.07.21c.05.08.09.15.15.21.69.97,1.26,1.8,1.72,2.5.46.7.8,1.28,1.03,1.75.23.46.34.83.34,1.09,0,.14-.03.28-.09.41-.06.13-.14.24-.25.32-.11.08-.26.13-.44.13-.17,0-.32-.03-.46-.1-.14-.07-.26-.15-.36-.25-.14-.14-.32-.38-.53-.72-.21-.34-.44-.73-.69-1.17-.25-.44-.49-.87-.72-1.3-.23-.43-.45-.8-.64-1.13-.09-.18-.16-.31-.22-.37-.06-.06-.12-.1-.18-.1s-.12.03-.17.1c-.05.06-.13.19-.23.37-.19.32-.41.71-.66,1.14-.25.44-.49.88-.75,1.33-.25.45-.49.84-.7,1.18-.21.34-.39.58-.53.71-.08.09-.18.16-.3.21-.12.05-.27.08-.44.08"/>
    <path class="st0" d="M379.45,250.53c-.23,0-.43-.04-.58-.14-.15-.09-.27-.25-.35-.47-.08-.23-.12-.52-.12-.88v-1.2c0-.5,0-1.06.01-1.67,0-.61.01-1.23.02-1.86,0-.63.01-1.22.02-1.79,0-.56,0-1.05,0-1.47v-.9c0-.21-.03-.35-.09-.43-.06-.08-.18-.12-.36-.12h-1.53c-.21,0-.4-.05-.58-.15-.18-.1-.27-.31-.27-.62,0-.19.04-.35.12-.49.08-.13.24-.23.49-.3.25-.07.63-.12,1.15-.15.51-.03,1.19-.05,2.03-.05s1.54.02,2.05.05c.51.03.89.08,1.15.15.25.07.42.17.5.3.08.13.13.29.13.49,0,.31-.09.52-.27.62-.18.1-.38.15-.6.15h-1.52c-.18,0-.3.04-.37.12-.07.08-.1.22-.1.43,0,.18,0,.48,0,.9,0,.42.01.91.01,1.47s0,1.16.02,1.79c.01.63.02,1.25.02,1.86s0,1.17.01,1.67c0,.51,0,.91,0,1.2,0,.36-.04.66-.12.88-.08.23-.19.38-.33.47-.14.09-.33.14-.56.14"/>
    <path class="st0" d="M395.35,250.56c-.7,0-1.29-.03-1.77-.09-.48-.06-.86-.16-1.14-.29-.29-.14-.5-.32-.64-.55-.14-.23-.23-.52-.27-.87-.07-.54-.11-1.19-.14-1.95-.02-.76-.04-1.65-.04-2.67,0-.92.02-1.74.05-2.48.03-.73.07-1.37.13-1.91.06-.48.21-.86.44-1.14.23-.28.58-.48,1.07-.6.49-.12,1.14-.18,1.97-.18,1.06,0,1.89.15,2.49.46.6.31,1.02.7,1.27,1.19.25.49.38,1.02.38,1.59,0,.52-.11.97-.34,1.36-.23.39-.54.71-.94.95-.13.09-.23.16-.31.21s-.12.11-.12.17c0,.1.14.2.43.29.6.19,1.08.54,1.46,1.05.38.5.56,1.17.56,1.98,0,.58-.15,1.14-.46,1.67-.3.53-.79.96-1.46,1.3-.67.34-1.54.51-2.61.51M395.23,248.84c.85,0,1.52-.17,2-.51.48-.34.72-.86.72-1.56s-.29-1.22-.87-1.55c-.58-.34-1.54-.51-2.9-.51-.42,0-.67.04-.78.12-.1.08-.16.25-.16.52,0,.39,0,.77.02,1.14.01.38.03.76.04,1.17.02.35.08.61.17.78s.26.28.53.33c.27.05.68.08,1.22.08M394.19,243.09c1.05,0,1.82-.17,2.32-.52.5-.35.75-.78.75-1.28,0-.62-.19-1.07-.56-1.36-.38-.29-.93-.43-1.67-.43-.66,0-1.1.06-1.3.17-.21.12-.32.37-.35.76-.01.3-.03.61-.05.93-.02.32-.03.67-.03,1.05,0,.3.05.49.16.56.1.08.35.12.74.12"/>
    <path class="st0" d="M404.52,250.53c-.31,0-.54-.14-.7-.43-.08-.14-.14-.42-.18-.83-.05-.41-.08-1.04-.1-1.86-.02-.83-.03-1.92-.03-3.26s.01-2.42.03-3.21c.02-.8.05-1.39.1-1.8.04-.4.1-.67.16-.82.17-.3.41-.45.72-.45.34,0,.58.15.74.45.08.13.14.4.17.81.04.41.07,1.01.09,1.81.02.8.03,1.87.03,3.21s0,2.47-.03,3.28c-.02.82-.05,1.43-.09,1.83-.04.41-.1.69-.19.84-.13.28-.37.43-.72.43"/>
    <path class="st0" d="M414.58,250.6c-.75,0-1.46-.14-2.13-.41-.67-.27-1.25-.67-1.76-1.18-.51-.52-.9-1.15-1.19-1.91-.29-.76-.44-1.63-.44-2.61,0-1.11.2-2.09.6-2.92s.96-1.53,1.67-2.1c.71-.56,1.54-.98,2.49-1.26.94-.28,1.97-.42,3.09-.42.41,0,.71.07.89.22.18.15.27.37.27.65,0,.22-.08.4-.24.54-.16.14-.4.23-.73.25-1.06.04-1.98.18-2.75.43-.77.25-1.4.58-1.9,1.01-.5.43-.87.94-1.11,1.54-.24.6-.36,1.28-.36,2.05,0,.88.15,1.64.46,2.28.3.64.73,1.14,1.28,1.5.55.36,1.19.53,1.91.53.59,0,1.12-.11,1.56-.32.45-.21.79-.56,1.04-1.03.25-.47.37-1.1.37-1.89,0-.34-.03-.55-.1-.65-.07-.1-.22-.15-.47-.17-.91,0-1.58-.03-2.02-.1-.44-.06-.73-.16-.86-.29-.14-.13-.2-.29-.2-.49,0-.22.07-.4.2-.54.14-.14.39-.25.77-.32.38-.07.91-.11,1.59-.11s1.23.04,1.63.11c.4.07.69.2.87.38.18.18.3.43.35.75s.08.74.08,1.25c0,1.2-.21,2.19-.62,2.96-.42.77-.99,1.34-1.72,1.71-.73.37-1.58.55-2.53.55"/>
    <path class="st0" d="M428.85,250.53c-.31,0-.54-.14-.7-.43-.08-.14-.14-.42-.18-.83-.05-.41-.08-1.04-.1-1.86-.02-.83-.03-1.92-.03-3.26s.01-2.42.03-3.21c.02-.8.05-1.39.1-1.8.04-.4.1-.67.16-.82.17-.3.41-.45.72-.45.34,0,.58.15.74.45.08.13.14.4.17.81.04.41.07,1.01.09,1.81.02.8.03,1.87.03,3.21s0,2.47-.03,3.28c-.02.82-.05,1.43-.09,1.83-.04.41-.1.69-.19.84-.13.28-.37.43-.72.43"/>
    <path class="st0" d="M436.46,250.6c-.48,0-.86-.02-1.15-.06-.29-.04-.52-.1-.68-.19-.16-.09-.28-.21-.36-.37-.1-.21-.18-.8-.23-1.79-.05-.98-.08-2.33-.08-4.04,0-1.1.01-2.06.04-2.87s.06-1.47.11-1.97c.05-.5.1-.81.17-.92.08-.15.19-.28.35-.37.15-.09.38-.15.68-.18.3-.03.69-.05,1.17-.05,2.52,0,4.44.54,5.76,1.63,1.32,1.09,1.97,2.67,1.97,4.74,0,1.39-.3,2.56-.88,3.52-.59.96-1.46,1.69-2.6,2.18-1.15.49-2.56.74-4.24.74M436.56,248.86c1.23,0,2.26-.15,3.09-.47.83-.31,1.46-.81,1.88-1.5.43-.68.64-1.6.64-2.76s-.22-2.04-.66-2.71-1.08-1.15-1.91-1.44c-.83-.29-1.85-.44-3.04-.44-.1,0-.19.01-.26.04-.07.03-.13.1-.16.23-.04.13-.07.36-.1.68-.03.33-.04.78-.05,1.36,0,.58,0,1.34,0,2.27,0,1.18,0,2.09.02,2.74.01.65.04,1.11.08,1.39.04.28.1.45.17.5.08.06.18.09.31.09"/>
    <path class="st0" d="M450.89,250.56c-.69,0-1.23-.03-1.62-.08-.4-.05-.69-.13-.87-.24-.19-.11-.32-.23-.4-.36-.07-.14-.12-.48-.17-1.01-.05-.53-.08-1.21-.11-2.02-.02-.81-.04-1.73-.04-2.74,0-1.22,0-2.23.03-3.04.02-.81.05-1.43.1-1.87.05-.44.1-.72.17-.84.08-.16.2-.27.38-.35.18-.08.45-.13.82-.15.37-.03.87-.04,1.51-.04,1.05,0,1.86.03,2.43.09.57.06.96.16,1.18.3.22.14.33.34.33.58,0,.27-.07.48-.22.61-.15.14-.39.2-.71.2-.26,0-.6,0-1.01,0-.42,0-.84-.02-1.27-.03-.43-.01-.82-.02-1.16-.02-.23,0-.39.03-.48.09-.08.06-.13.23-.15.51-.01.36-.02.72-.03,1.08,0,.36-.01.7-.01,1.04,0,.28.05.46.15.52.1.06.24.09.44.09.43,0,.8,0,1.11-.01.31,0,.62-.01.92-.02.3,0,.65-.01,1.04-.01.47,0,.78.07.93.21.16.14.23.36.23.66s-.09.5-.27.65c-.18.15-.47.22-.85.22-.45,0-.98,0-1.59-.02-.61-.01-1.18-.02-1.71-.02-.23,0-.35.12-.35.35,0,.25,0,.55.01.91,0,.36.01.73.02,1.09,0,.36.01.67.02.92,0,.25.01.4.01.46.02.18.07.31.13.39.06.08.18.12.36.12h3.49c.22,0,.42.05.59.14.17.1.26.3.26.59,0,.18-.05.34-.15.48-.1.14-.28.25-.54.33-.27.08-.63.15-1.11.18-.47.04-1.09.06-1.84.06"/>
    <path class="st0" d="M458.28,250.58c-.22,0-.39-.05-.52-.14-.13-.09-.22-.21-.28-.37-.06-.15-.09-.34-.09-.56,0-.35.05-.83.16-1.44.1-.61.25-1.32.45-2.14.19-.82.43-1.7.7-2.66.32-1.13.61-2.05.87-2.76s.51-1.27.76-1.67c.25-.4.5-.68.76-.83.26-.16.54-.23.85-.23.35,0,.66.09.92.26.27.17.52.46.76.87.24.41.48.96.72,1.67.24.71.51,1.6.81,2.67.28.97.53,1.87.73,2.69.2.82.36,1.54.47,2.14.11.61.16,1.08.16,1.42,0,.21-.03.4-.09.56-.06.17-.15.29-.28.38-.13.08-.3.13-.52.13-.19,0-.36-.05-.49-.15-.14-.1-.25-.24-.33-.44-.08-.19-.15-.42-.2-.68-.12-.66-.21-1.18-.29-1.57-.08-.39-.14-.69-.2-.89-.06-.21-.12-.37-.18-.49-.05-.1-.12-.18-.21-.23-.09-.05-.26-.08-.52-.1-.26-.01-.67-.02-1.22-.02s-.92,0-1.18.02c-.26.01-.44.05-.53.1-.1.05-.17.12-.22.21-.08.16-.15.34-.2.54-.06.21-.12.49-.18.86-.07.37-.17.9-.31,1.58-.05.26-.12.48-.2.67-.08.19-.19.33-.31.43-.12.1-.29.15-.49.15M461.99,244.45h.58c.18,0,.34,0,.49-.02.16-.01.26-.05.31-.11.05-.06.08-.15.08-.28,0-.23-.05-.53-.15-.88-.11-.35-.22-.75-.35-1.17-.19-.7-.35-1.21-.47-1.54s-.22-.54-.3-.64c-.08-.1-.18-.15-.28-.15-.08,0-.15.05-.23.15-.08.11-.17.32-.27.63-.1.32-.25.81-.45,1.49-.12.4-.23.79-.34,1.18-.11.39-.17.7-.17.93,0,.13.02.22.07.28.05.06.15.1.3.11.22.01.42.02.6.02h.58Z"/>
    <path class="st0" d="M471.74,246.39c-.22,0-.38-.05-.48-.15-.1-.1-.15-.24-.15-.41,0-.19.08-.39.25-.6s.38-.44.63-.69c.25-.25.5-.53.75-.84.25-.31.45-.66.62-1.05s.25-.82.25-1.28-.15-.89-.46-1.24c-.3-.35-.85-.52-1.64-.52-.36,0-.65.02-.86.07-.21.05-.39.09-.54.14-.15.05-.31.07-.48.07-.13,0-.26-.02-.38-.06-.12-.04-.22-.11-.29-.21-.07-.1-.11-.24-.11-.41,0-.25.12-.48.35-.69.23-.21.57-.39,1-.51.43-.13.95-.19,1.56-.19.91,0,1.64.16,2.2.48.56.32.98.73,1.24,1.25.27.52.4,1.09.4,1.73,0,.6-.12,1.16-.35,1.69-.23.53-.53,1.02-.89,1.47-.36.45-.73.86-1.09,1.2-.26.25-.52.44-.79.57-.27.14-.52.2-.77.2M471.84,250.51c-.43,0-.76-.14-1-.41-.24-.27-.36-.61-.36-1.01s.12-.74.36-1.01c.24-.27.57-.41,1-.41s.76.14,1.01.41c.25.27.37.61.37,1.01s-.12.74-.37,1.01c-.25.27-.58.41-1.01.41"/>
    <path class="st0" d="M216.27,93.27c-2.15,2.8-5.61,11.25-9.73,9.71-1.83-.68-10.25-6.65-11.33-5.89-.92,2.22-2.48,15.53-4.08,15.9-6.13-3.58-30.79-2.35-36.08-6.97l32.7.62,5.35-15.88,16.33,4.4c7.57-20.05,2.41-43.71-17.33-53.46.62,5.2-1.99,18.84-6.83,21.36-1.66.87-4.55-4.37-6.51-4.8l-4.29,10.86c-1.68,1.24-5.27.34-7.48.6-11.62,1.37-20.3,13.11-24.68,23.36l-17.09,11.11c-.84,1.47,6.82,13.31,7.98,15.51l2.49-3.82c.15,10.37-9.29,14.77-13.62,22.91l6.81,11.14,1.22-.37,1.86-6.62c-.16,3.21.26,9.2-.93,12.08-1.11,2.7-9.05,7.68-10.21,11.14-.02.81,7.35,13.48,8.04,14.04.46.37.68.39,1.25.3l1.24-3.18c-.17,2.61.59,6.65-.97,8.87-1.89,2.68-8.95,6.64-11.47,9.39-.23,1.11,4.41,12.44,5.33,13.56,1.19,1.45,1.74-1.33,2.25-2.12.42-.65,1.27-1.97,1.14-.11l-2.89,6.74-14.17,5.66.34,13.39,3.1-1.58c-.79,1.41-3.33,5.12-4.71,5.21l-10.8-.12c-.53.33-5.44,10.48-5.58,11.47-.38,2.63,2.84-1.13,3.73,0-3.44,4.15-56.01,3.73-59.22,6.75-.78.74,42.1,4.08,43.08,4.73.35.24,7.13.89,8.36.96,16.2.88,38.24-1.81,49.95-14.34,1.01-1.08,3.36-5.09,4.02-5.42,1.03-.53.99.75,1.21,1.27,1.56,3.67,1.94,10.16,6.97,11.33,5.29,1.23,18.43.07,24.69.1,2.43.01,4.64,1.17,7.39,0l18.94.03c.73-4.77-3.07-10.47-7.56-11.66-1.7-.45-5.64-.04-6.05-1.47-.25-.87,4.09-14.75,4.63-17.41,6.06-29.62,3.24-53.13,1.54-82.49-1.03-17.74,13.45-13.3,20.96-24.3,4.93-7.21,3.05-14.67.72-22.49M171.63,80.23c3.92,3.91-2.46,9.74-6.03,5.88-3.37-3.65,2.23-9.66,6.03-5.88M142.46,214.6c-1.37-3.47,1.16-9.25,4.81-10.44,7.52,2.41-1.68,18.35-4.81,10.44M153.44,237.01c-6.65-.72-3.34-18.17,3.74-18.79,7.26-.64,3.87,19.62-3.74,18.79M168.1,210.31c-6.59,1.51-3.3-10.79.27-11.87,6.28-1.89,4.44,10.79-.27,11.87M168.98,181.27c-14.66,5.95-20.66-13.85-17.79-25.27.22-.88-.02-1.99,1.23-2.23.54,7.98,4.53,28.43,15.94,20.5,7.02-4.88,3.18-19.17.98-26.09-1.33-4.19-5.13-10.79-5.76-14.47-.06-.37-.16-1.05.31-.96,10.66,10.02,24.25,40.74,5.09,48.52"/>
    <path class="st1" d="M172.18,217.17c-3.38-3.29-8.38,1.93-5.37,5.1,3.18,3.35,8.87-1.71,5.37-5.1"/>
    <path class="st0" d="M207.01,113.34l41.88-9.26c7.03-1.56,14.07-3.11,21.1-4.67,6.74-1.49,13.46-3.09,20.28-4.15,6.21-.98,13.17-1.28,19.74-.56,1.42.15,2.12.26,3.68.51,1.77.29,3.52.62,5.28.98,3.23.66,6.43,1.41,9.64,2.14,6.8,1.55,13.62,2.97,20.58,3.57,6.99.61,14.02.37,21.03.05,13.42-.6,27.08-.72,40.2,1.01,12.74,1.69,25.91,4.97,38.2,9.44,6.02,2.19,11.39,4.31,16.99,7.6,1.33.78,2.63,1.62,3.89,2.51.32.22.62.45.94.68-.73-.54-.11-.09.03.02.57.46,1.12.92,1.67,1.41,1.79,1.59,3.41,3.35,4.93,5.2.49.59-.44-.6.02.01.17.23.35.46.52.7.34.47.67.94.99,1.43.69,1.02,1.33,2.07,1.93,3.15.57,1.01,1.1,2.05,1.59,3.1.1.22.77,1.76.38.8.28.67.54,1.35.79,2.03.8,2.19,1.44,4.44,1.93,6.72.24,1.14.44,2.29.61,3.44-.16-1.09.05.52.08.84.07.72.13,1.45.16,2.18.13,2.39.09,4.8-.13,7.19-.03.29-.06.58-.09.87-.02.16-.13,1.07-.04.42.09-.65-.04.26-.07.41-.04.29-.09.57-.14.86-.22,1.21-.48,2.42-.79,3.6-.29,1.12-.63,2.23-1.01,3.32-.19.55-.4,1.09-.6,1.63-.34.9-.07.19,0,.01-.17.4-.35.8-.53,1.19-1.1,2.35-2.48,4.53-3.83,6.74-3.29,5.38-6.53,11.41-5.25,17.91.61,3.11,2.51,5.96,4.92,7.97,1.21,1.01,2.49,1.92,3.78,2.82.54.38,1.08.74,1.6,1.15-.63-.5-.03-.01.07.08.33.3.67.58.99.89.42.4.83.82,1.23,1.25.21.23,1.2,1.44.6.65.74.97,1.39,2,1.98,3.07.28.5.54,1.01.78,1.53.06.13.44.96.19.39s.11.27.16.41c.45,1.16.83,2.35,1.15,3.55.31,1.15.57,2.32.77,3.5.11.6.2,1.2.29,1.8-.13-.95-.02-.15,0,.04.05.46.1.92.14,1.38.23,2.56.3,5.14.26,7.71-.04,2.58-.18,5.15-.39,7.72-.1,1.22-.21,2.44-.33,3.66-.07.67-.13,1.34-.21,2.01-.04.35-.08.7-.12,1.04-.1.85.01,0-.07.5-.22,1.38-.48,2.75-.86,4.09-.1.33-.2.66-.31.99-.03.09-.39,1.09-.2.61.19-.48-.22.48-.27.57-.19.38-.39.76-.61,1.12-.18.29-.36.58-.56.86.41-.59,0,.02-.1.12-.4.45-.81.89-1.26,1.29-.22.2-.45.4-.68.58.7-.55.08-.08-.07.01-.64.39-1.26.79-1.93,1.13-.27.14-.54.26-.82.39.19-.09.85-.31-.07.01-.58.21-1.16.41-1.75.58-1.28.38-2.58.66-3.89.88-.31.05-.62.1-.94.15-.81.12.73-.08-.09,0-.63.07-1.26.14-1.9.19-1.33.11-2.66.19-3.99.24-6.98.29-13.96.4-20.95.36-14.18-.09-28.35-.85-42.46-2.28-13.72-1.39-27.47-3.88-41.31-3.32-7.15.29-14.14,1.56-21.04,3.4-6.64,1.77-13.21,3.65-19.98,4.88-13.04,2.37-26.67,3.01-40.16,3.43-11.55.36-23.11.69-34.66.35-5.62-.17-11.24-.49-16.83-1.06-1.33-.14-2.65-.28-3.97-.45-.33-.04-.66-.08-.99-.13.22.03.87.12-.15-.02-.74-.1-1.48-.21-2.21-.32-2.68-.41-5.35-.89-8.01-1.45-5.3-1.12-10.54-2.57-15.62-4.43-1.2-.44-2.39-.91-3.57-1.39-.53-.22,0,0,.09.04-.29-.13-.59-.25-.88-.38-.73-.32-1.45-.65-2.17-.99-2.37-1.12-4.7-2.36-6.95-3.7-2.2-1.31-4.33-2.73-6.39-4.25-.26-.19-.52-.38-.77-.58-.65-.49.51.4-.13-.11-.51-.4-1.01-.81-1.51-1.23-1.07-.89-2.1-1.81-3.12-2.76-1.98-1.84-5.11-1.96-7.07,0-1.86,1.86-1.99,5.23,0,7.07,17.1,15.9,39.68,22.53,62.44,24.98,11.36,1.22,22.8,1.42,34.21,1.27,13.14-.17,26.34-.48,39.44-1.52,7.25-.57,14.5-1.42,21.66-2.73,6.97-1.26,13.73-3.22,20.57-5.03,6.77-1.79,13-2.83,19.97-2.95,7.11-.12,14.21.52,21.27,1.32,14.28,1.62,28.5,3.24,42.87,3.89,13.89.63,28.04.97,41.92-.12,5.73-.45,11.81-1.42,16.72-4.63,5.56-3.64,8.56-9.37,9.62-15.83,1.8-10.9,2.58-22.82.12-33.67-1.22-5.4-3.56-10.44-7.1-14.71-1.83-2.21-4.08-3.97-6.42-5.61-.54-.38-1.08-.75-1.61-1.14-.74-.54.82.75-.34-.26-.24-.21-.49-.42-.72-.64-.23-.22-.45-.45-.68-.68-.12-.12-.51-.74-.11-.12-.18-.28-.34-.56-.5-.85.32.58-.03-.05-.12-.36-.04-.13-.29-1.08-.16-.47.13.6-.02-.33-.03-.48-.01-.39,0-.78.03-1.16-.01.22-.2.92.02-.08.14-.64.3-1.27.5-1.9.1-.32.22-.64.34-.95.28-.75,0-.03.21-.47,1.31-2.72,2.92-5.26,4.49-7.83,2.74-4.47,4.8-9.4,5.96-14.52,4.82-21.27-3.87-44.52-22.41-56.32-5.86-3.73-12.39-6.39-18.86-8.84-6.34-2.4-12.82-4.45-19.39-6.13-13.36-3.43-27.15-5.42-40.94-5.92-14.25-.51-28.51,1.48-42.74.46-13.17-.95-26.61-5.74-40.15-7.27-14.33-1.62-28.45,1.83-42.35,4.9-14.28,3.16-28.55,6.32-42.83,9.47-6.93,1.53-13.86,3.07-20.78,4.6-2.56.57-4.29,3.67-3.49,6.15.87,2.69,3.41,4.1,6.15,3.49"/>
  </g>
</svg>