<?xml version="1.0" encoding="UTF-8"?>
<svg id="Layer_1" xmlns="http://www.w3.org/2000/svg" version="1.1" viewBox="0 0 200 200">
  <!-- Generator: Adobe Illustrator 29.2.1, SVG Export Plug-In . SVG Version: 2.1.0 Build 116)  -->
  <defs>
    <style>
      .st0 {
        fill: #fff;
      }

      .st1 {
        fill: #df5a26;
      }
    </style>
  </defs>
  <path class="st1" d="M187.5,100c0,48.33-39.18,87.5-87.5,87.5S12.5,148.33,12.5,100,51.68,12.5,100,12.5s87.5,39.17,87.5,87.5"/>
  <path class="st0" d="M110.66,50.25h-12.02c-18.78,0-34.01,15.23-34.01,34.01v34.01h46.03c18.78,0,34.01-15.23,34.01-34.01s-15.23-34.01-34.01-34.01M108.96,98.3h-22.67v-14.05c0-7.74,6.3-14.04,14.05-14.04h8.62c7.74,0,14.05,6.3,14.05,14.04s-6.3,14.05-14.05,14.05"/>
  <path class="st0" d="M64.54,123.87v21.09c0,7.74,6.27,14,14,14s14-6.27,14-14v-.04c0-5.03-2.84-9.64-7.35-11.89l-19.62-9.81c-.48-.24-1.04.11-1.04.64"/>
</svg>