<?xml version="1.0" encoding="UTF-8"?>
<svg id="Layer_1" xmlns="http://www.w3.org/2000/svg" version="1.1" viewBox="0 0 400 400">
  <!-- Generator: Adobe Illustrator 29.1.0, SVG Export Plug-In . SVG Version: 2.1.0 Build 142)  -->
  <defs>
    <style>
      .st0 {
        fill: #fff;
      }

      .st1 {
        fill: #044852;
      }

      .st2 {
        fill: #df5a26;
      }
    </style>
  </defs>
  <path class="st1" d="M89.3,276.02c3.61,0,6.9.36,9.85,1.09,2.96.73,5.47,1.86,7.56,3.39,2.09,1.53,3.7,3.48,4.85,5.84,1.15,2.37,1.72,5.14,1.72,8.34v23.56c0,1.81-.47,3.25-1.41,4.33-.94,1.08-2.07,2-3.39,2.76-2.15,1.32-4.79,2.33-7.93,3.02-3.13.7-6.67,1.04-10.63,1.04-7.16,0-12.86-1.37-17.1-4.12-4.24-2.74-6.36-6.93-6.36-12.56,0-4.79,1.42-8.44,4.27-10.95,2.85-2.5,7.23-4.07,13.14-4.69l13.87-1.46v-1.15c0-2.22-.9-3.86-2.71-4.9-1.81-1.04-4.41-1.57-7.82-1.57-2.64,0-5.23.31-7.77.94-2.54.63-4.81,1.36-6.83,2.19-.83-.56-1.54-1.41-2.14-2.56-.59-1.14-.89-2.38-.89-3.7,0-3.06,1.6-5.25,4.8-6.57,2.01-.76,4.36-1.34,7.04-1.72,2.67-.38,5.3-.57,7.87-.57M89.92,317.62c1.53,0,3.04-.16,4.53-.47,1.49-.32,2.62-.71,3.39-1.2v-9.59l-8.55.73c-2.23.21-4.01.71-5.37,1.51-1.36.8-2.03,2-2.03,3.6s.62,2.99,1.88,3.96c1.25.97,3.3,1.46,6.15,1.46"/>
  <path class="st1" d="M155.09,290.3c-1.46-1.18-3.41-1.77-5.84-1.77-1.67,0-3.2.21-4.59.63-1.39.42-2.68.94-3.86,1.56v36.91c-.7.21-1.67.4-2.92.57-1.25.17-2.64.26-4.17.26-3.13,0-5.39-.51-6.78-1.51-1.39-1.01-2.09-2.97-2.09-5.89v-32.22c0-1.8.38-3.26,1.15-4.38.76-1.11,1.84-2.15,3.23-3.13,2.23-1.6,5.09-2.88,8.6-3.86,3.51-.97,7.38-1.46,11.62-1.46,7.58,0,13.43,1.67,17.57,5,4.13,3.34,6.2,8.1,6.2,14.29v32.32c-.77.21-1.77.4-3.02.57-1.25.17-2.64.26-4.17.26-3.13,0-5.37-.51-6.72-1.51-1.36-1.01-2.03-2.97-2.03-5.89v-25.33c0-2.43-.73-4.24-2.19-5.42"/>
  <path class="st1" d="M216.5,323.67c-1.39.62-2.96,1.13-4.69,1.51-1.74.38-3.72.58-5.95.58-3.13,0-6.1-.43-8.92-1.3s-5.26-2.27-7.35-4.22c-2.09-1.95-3.75-4.49-5-7.61s-1.88-6.95-1.88-11.47c0-4.1.63-7.72,1.88-10.84s3.04-5.75,5.37-7.87c2.33-2.12,5.11-3.72,8.34-4.8,3.23-1.08,6.83-1.62,10.79-1.62s7.45.51,10.69,1.51c3.23,1.01,5.75,2.1,7.56,3.28,1.32.9,2.36,1.93,3.13,3.08.76,1.14,1.14,2.59,1.14,4.33v39.31c0,3.61-.66,6.74-1.98,9.38-1.32,2.64-3.14,4.81-5.47,6.52-2.33,1.7-5.06,2.97-8.19,3.8-3.13.84-6.5,1.26-10.11,1.26s-7-.32-9.75-.94c-2.75-.62-4.92-1.42-6.52-2.4-2.36-1.67-3.54-3.89-3.54-6.67,0-1.46.31-2.8.94-4.01.63-1.22,1.32-2.1,2.09-2.66,1.95,1.11,4.19,2.07,6.72,2.87,2.54.8,5.23,1.2,8.08,1.2,3.89,0,6.97-.68,9.23-2.03,2.26-1.36,3.39-3.6,3.39-6.73v-3.44ZM208.68,313.76c1.67,0,3.11-.21,4.33-.63,1.21-.42,2.31-.97,3.28-1.67v-21.37c-.83-.35-1.76-.69-2.76-1.04-1.01-.35-2.28-.52-3.81-.52-3.34,0-6.03,1.03-8.08,3.07-2.05,2.05-3.08,5.27-3.08,9.65,0,2.36.26,4.34.78,5.94.52,1.6,1.24,2.88,2.14,3.86.9.98,1.97,1.67,3.18,2.09,1.22.41,2.55.63,4.01.63"/>
  <path class="st1" d="M263.62,276.02c3.61,0,6.9.36,9.85,1.09,2.96.73,5.47,1.86,7.56,3.39,2.09,1.53,3.7,3.48,4.85,5.84,1.15,2.37,1.72,5.14,1.72,8.34v23.56c0,1.81-.47,3.25-1.41,4.33-.94,1.08-2.07,2-3.39,2.76-2.15,1.32-4.79,2.33-7.93,3.02-3.13.7-6.67,1.04-10.63,1.04-7.16,0-12.86-1.37-17.1-4.12-4.24-2.74-6.36-6.93-6.36-12.56,0-4.79,1.42-8.44,4.27-10.95,2.85-2.5,7.23-4.07,13.14-4.69l13.87-1.46v-1.15c0-2.22-.9-3.86-2.71-4.9-1.81-1.04-4.41-1.57-7.82-1.57-2.64,0-5.23.31-7.77.94-2.54.63-4.81,1.36-6.83,2.19-.83-.56-1.54-1.41-2.14-2.56-.59-1.14-.89-2.38-.89-3.7,0-3.06,1.6-5.25,4.8-6.57,2.01-.76,4.36-1.34,7.04-1.72,2.67-.38,5.3-.57,7.87-.57M264.25,317.62c1.53,0,3.04-.16,4.53-.47,1.49-.32,2.62-.71,3.39-1.2v-9.59l-8.55.73c-2.23.21-4.01.71-5.37,1.51-1.36.8-2.03,2-2.03,3.6s.62,2.99,1.88,3.96c1.25.97,3.3,1.46,6.15,1.46"/>
  <path class="st1" d="M312.73,309.28c.97,2.92,2.67,4.99,5.11,6.2,2.43,1.22,5.25,1.83,8.45,1.83,2.92,0,5.66-.4,8.24-1.2,2.57-.8,4.65-1.69,6.25-2.66,1.04.7,1.91,1.6,2.61,2.71.7,1.11,1.04,2.33,1.04,3.65,0,1.6-.49,2.99-1.46,4.17-.98,1.18-2.31,2.17-4.01,2.97-1.71.8-3.72,1.39-6.05,1.77-2.33.38-4.88.58-7.66.58-4.1,0-7.89-.58-11.36-1.72-3.48-1.15-6.46-2.85-8.97-5.11-2.5-2.26-4.47-5.09-5.89-8.5-1.42-3.41-2.14-7.4-2.14-11.99s.71-8.31,2.14-11.57c1.42-3.27,3.34-5.98,5.73-8.13,2.4-2.15,5.14-3.73,8.24-4.74,3.09-1.01,6.27-1.51,9.54-1.51,3.54,0,6.79.54,9.75,1.61,2.96,1.08,5.49,2.59,7.61,4.53,2.12,1.95,3.77,4.28,4.95,6.99,1.19,2.71,1.77,5.66,1.77,8.86,0,2.23-.59,3.89-1.77,5-1.18,1.12-2.85,1.84-5,2.19l-27.11,4.07ZM322.63,287.8c-2.99,0-5.47.92-7.45,2.76-1.98,1.84-3.15,4.5-3.49,7.97l19.91-3.23c-.14-1.8-.94-3.51-2.4-5.11-1.46-1.6-3.65-2.4-6.57-2.4"/>
  <path class="st1" d="M376.02,276.02c3.61,0,6.9.36,9.85,1.09,2.96.73,5.47,1.86,7.56,3.39,2.09,1.53,3.7,3.48,4.85,5.84,1.15,2.37,1.72,5.14,1.72,8.34v23.56c0,1.81-.47,3.25-1.41,4.33-.94,1.08-2.07,2-3.39,2.76-2.15,1.32-4.79,2.33-7.93,3.02-3.13.7-6.67,1.04-10.63,1.04-7.16,0-12.86-1.37-17.1-4.12-4.24-2.74-6.36-6.93-6.36-12.56,0-4.79,1.42-8.44,4.27-10.95,2.85-2.5,7.23-4.07,13.14-4.69l13.87-1.46v-1.15c0-2.22-.9-3.86-2.71-4.9-1.81-1.04-4.41-1.57-7.82-1.57-2.64,0-5.23.31-7.77.94-2.54.63-4.81,1.36-6.83,2.19-.83-.56-1.54-1.41-2.14-2.56-.59-1.14-.89-2.38-.89-3.7,0-3.06,1.6-5.25,4.8-6.57,2.01-.76,4.36-1.34,7.04-1.72,2.67-.38,5.3-.57,7.87-.57M376.65,317.62c1.53,0,3.04-.16,4.53-.47,1.49-.32,2.62-.71,3.39-1.2v-9.59l-8.55.73c-2.23.21-4.01.71-5.37,1.51-1.36.8-2.03,2-2.03,3.6s.62,2.99,1.88,3.96c1.25.97,3.3,1.46,6.15,1.46"/>
  <path class="st1" d="M35.49,276.14h-9.25c-14.45,0-26.17,11.72-26.17,26.17v26.17h35.42c14.45,0,26.17-11.72,26.17-26.17s-11.72-26.17-26.17-26.17M34.18,313.12h-17.44v-10.81c0-5.96,4.85-10.81,10.81-10.81h6.64c5.96,0,10.81,4.85,10.81,10.81s-4.85,10.81-10.81,10.81"/>
  <path class="st1" d="M0,332.79v16.23c0,5.95,4.83,10.77,10.77,10.77s10.78-4.83,10.78-10.77v-.03c0-3.87-2.19-7.41-5.65-9.15l-15.1-7.55c-.37-.18-.8.09-.8.5"/>
  <path class="st1" d="M282.26,378.39v-29.94h2.56v2.7c1.34-.76,2.64-1.35,3.91-1.76,1.26-.41,2.44-.72,3.52-.94,1.08-.21,2.07-.34,2.97-.39.9-.05,1.65-.07,2.26-.07,1.92,0,3.73.25,5.42.73,1.69.49,3.17,1.21,4.44,2.17,1.26.96,2.26,2.14,2.99,3.54.73,1.4,1.1,3.05,1.1,4.94,0,1.31-.18,2.51-.53,3.61-.35,1.1-.83,2.08-1.44,2.95-.61.87-1.35,1.64-2.22,2.31-.87.67-1.82,1.23-2.86,1.67-1.04.45-2.13.78-3.29,1.01-1.16.23-2.33.34-3.52.34-.85,0-1.77-.04-2.76-.11-.99-.08-2.01-.22-3.07-.43-1.05-.21-2.16-.52-3.32-.91-1.16-.4-2.35-.93-3.57-1.6v10.19h-2.61ZM297.17,369.02c1.03,0,2.03-.08,2.99-.25.96-.17,1.87-.43,2.72-.78.85-.35,1.64-.79,2.36-1.32.72-.53,1.33-1.17,1.83-1.92s.9-1.58,1.19-2.49c.29-.91.43-1.92.43-3.01,0-1.53-.31-2.85-.91-3.98-.61-1.13-1.45-2.06-2.52-2.81-1.07-.75-2.29-1.32-3.68-1.72-1.39-.39-2.86-.6-4.41-.6-1.37,0-2.64.1-3.82.3-1.17.2-2.26.46-3.27.78-1.01.32-1.95.69-2.81,1.12-.87.42-1.67.88-2.4,1.37v11.89c.95.58,1.94,1.08,2.97,1.51,1.04.43,2.08.79,3.13,1.08,1.05.29,2.1.5,3.13.64,1.04.14,2.06.21,3.07.21"/>
  <path class="st1" d="M321.94,352.38h.18c.46-.73,1.01-1.38,1.67-1.94.65-.56,1.38-1.03,2.17-1.41.79-.38,1.66-.67,2.61-.87.94-.2,1.92-.3,2.92-.3.85,0,1.69.04,2.51.14.83.09,1.68.26,2.56.5v2.56c-.86-.27-1.73-.49-2.63-.64-.9-.15-1.8-.23-2.72-.23-1.04,0-2.04.13-3.02.37-.98.24-1.87.62-2.7,1.14-.83.52-1.54,1.15-2.15,1.9-.61.75-1.08,1.65-1.42,2.72v14.49h-2.61v-22.31h2.61v3.89Z"/>
  <path class="st1" d="M339.55,340.68h2.74v4.3h-2.74v-4.3ZM339.64,348.45h2.56v22.35h-2.56v-22.35Z"/>
  <path class="st1" d="M353.58,352.42c.09.06.15.09.18.09.97-.88,1.99-1.61,3.06-2.19,1.07-.58,2.16-1.04,3.29-1.39,1.13-.35,2.23-.59,3.32-.73s2.08-.21,2.99-.21c1.77,0,3.35.17,4.76.5,1.4.34,2.61.88,3.63,1.64,1.02.76,1.81,1.75,2.38,2.95.57,1.21.85,2.63.85,4.27v13.44h-2.51v-12.8c0-1.37-.2-2.55-.6-3.54s-1-1.81-1.8-2.45c-.81-.64-1.82-1.11-3.04-1.42-1.22-.3-2.66-.46-4.34-.46-1.22,0-2.43.13-3.63.39-1.21.26-2.34.63-3.41,1.1-1.07.47-2.03,1.04-2.9,1.71-.87.67-1.61,1.42-2.22,2.24v15.22h-2.56v-22.35h2.56v3.98Z"/>
  <path class="st1" d="M383.03,348.45h5.26v-6.22h2.47v6.22h7.22v2.06h-7.22v15.09c0,.7.1,1.28.3,1.74.2.46.47.81.8,1.05.33.25.73.41,1.19.5.46.09.94.14,1.46.14.64,0,1.33-.09,2.08-.27.75-.18,1.46-.44,2.13-.78v2.24c-.34.18-.73.34-1.17.46-.44.12-.88.22-1.32.3-.45.08-.86.14-1.26.19-.39.04-.79.07-1.19.07-.82,0-1.59-.09-2.28-.27-.7-.18-1.29-.46-1.76-.85-.47-.38-.84-.88-1.1-1.51-.26-.63-.39-1.39-.39-2.31v-15.77h-5.21v-2.06Z"/>
  <path class="st2" d="M325.81,130.89c0,60.36-48.93,109.29-109.29,109.29s-109.28-48.93-109.28-109.29S156.17,21.61,216.52,21.61s109.29,48.93,109.29,109.29"/>
  <path class="st0" d="M229.83,68.75h-15.01c-23.46,0-42.48,19.02-42.48,42.48v42.48h57.48c23.46,0,42.48-19.02,42.48-42.48s-19.02-42.48-42.48-42.48M227.72,128.77h-28.31v-17.54c0-9.67,7.87-17.54,17.54-17.54h10.77c9.67,0,17.54,7.87,17.54,17.54s-7.87,17.54-17.54,17.54"/>
  <path class="st0" d="M172.24,160.71v26.34c0,9.66,7.83,17.49,17.49,17.49s17.49-7.83,17.49-17.49v-.04c0-6.29-3.55-12.04-9.18-14.85l-24.5-12.25c-.6-.3-1.3.14-1.3.8"/>
</svg>